<svg width="272" height="258" viewBox="0 0 272 258" fill="none" xmlns="http://www.w3.org/2000/svg">
<path opacity="0.5" d="M87.9145 252.992L247.479 210.376C261.172 206.721 268.493 191.475 263.033 178.003L199.351 20.9318C195.449 11.3085 184.607 6.83991 175.382 11.0513L42.5108 71.7228C34.6845 75.2964 30.454 84.0777 32.415 92.6786L65.7902 239.21C68.0995 249.367 78.1178 255.605 87.9145 252.992Z" fill="#E1F6FF"/>
<rect y="53.0001" width="246" height="98" rx="11" fill="#8577D9"/>
<g filter="url(#filter0_d)">
<rect x="41" y="135" width="185" height="91" rx="11" fill="white"/>
</g>
<path d="M26.8164 87.0001H24.4824V74.7247H20.2832V72.7227H31.0156V74.7247H26.8164V87.0001ZM42.4707 87.0001H40.166V80.3594C40.166 79.5261 39.9967 78.9044 39.6582 78.4942C39.3262 78.084 38.7956 77.879 38.0664 77.879C37.1029 77.879 36.3932 78.1687 35.9375 78.7481C35.4883 79.321 35.2637 80.2846 35.2637 81.6387V87.0001H32.9688V71.8047H35.2637V75.6622C35.2637 76.2807 35.2246 76.9415 35.1465 77.6446H35.293C35.6055 77.1238 36.0384 76.7201 36.5918 76.4337C37.1517 76.1472 37.8027 76.004 38.5449 76.004C41.1621 76.004 42.4707 77.3223 42.4707 79.959V87.0001ZM47.959 87.0001H45.6641V76.1993H47.959V87.0001ZM45.5273 73.338C45.5273 72.9278 45.638 72.612 45.8594 72.3907C46.0872 72.1693 46.4095 72.0587 46.8262 72.0587C47.2298 72.0587 47.5423 72.1693 47.7637 72.3907C47.9915 72.612 48.1055 72.9278 48.1055 73.338C48.1055 73.7286 47.9915 74.0378 47.7637 74.2657C47.5423 74.487 47.2298 74.5977 46.8262 74.5977C46.4095 74.5977 46.0872 74.487 45.8594 74.2657C45.638 74.0378 45.5273 73.7286 45.5273 73.338ZM58.5059 83.9239C58.5059 84.9786 58.1217 85.7891 57.3535 86.3555C56.5853 86.9154 55.485 87.1954 54.0527 87.1954C52.6139 87.1954 51.4583 86.9773 50.5859 86.5411V84.5587C51.8555 85.1446 53.0371 85.4376 54.1309 85.4376C55.5436 85.4376 56.25 85.0111 56.25 84.1583C56.25 83.8848 56.1719 83.657 56.0156 83.4747C55.8594 83.2924 55.6022 83.1036 55.2441 82.9083C54.8861 82.713 54.388 82.4916 53.75 82.2442C52.5065 81.7624 51.6634 81.2807 51.2207 80.7989C50.7845 80.3171 50.5664 79.6921 50.5664 78.9239C50.5664 77.9994 50.9375 77.2833 51.6797 76.7755C52.4284 76.2611 53.444 76.004 54.7266 76.004C55.9961 76.004 57.1973 76.2611 58.3301 76.7755L57.5879 78.504C56.4225 78.0222 55.4427 77.7813 54.6484 77.7813C53.4375 77.7813 52.832 78.1264 52.832 78.8165C52.832 79.155 52.9883 79.4415 53.3008 79.6758C53.6198 79.9102 54.3099 80.2325 55.3711 80.6426C56.263 80.9877 56.9108 81.3034 57.3145 81.5899C57.7181 81.8764 58.0176 82.2084 58.2129 82.586C58.4082 82.9571 58.5059 83.4031 58.5059 83.9239ZM71.6699 87.1954C70.3027 87.1954 69.2415 86.7038 68.4863 85.7208H68.3496C68.4408 86.6322 68.4863 87.1856 68.4863 87.3809V91.8047H66.1914V76.1993H68.0469C68.099 76.4011 68.2064 76.8829 68.3691 77.6446H68.4863C69.2025 76.5508 70.2767 76.004 71.709 76.004C73.0566 76.004 74.1048 76.4922 74.8535 77.4688C75.6087 78.4454 75.9863 79.8158 75.9863 81.5801C75.9863 83.3445 75.6022 84.7214 74.834 85.711C74.0723 86.7006 73.0176 87.1954 71.6699 87.1954ZM71.1133 77.879C70.2018 77.879 69.5345 78.1459 69.1113 78.6797C68.6947 79.2136 68.4863 80.0665 68.4863 81.2383V81.5801C68.4863 82.8952 68.6947 83.849 69.1113 84.4415C69.528 85.0274 70.2083 85.3204 71.1523 85.3204C71.9466 85.3204 72.5586 84.9949 72.9883 84.3438C73.418 83.6928 73.6328 82.765 73.6328 81.5606C73.6328 80.3497 73.418 79.435 72.9883 78.8165C72.5651 78.1915 71.9401 77.879 71.1133 77.879ZM84.1309 76.004C84.5931 76.004 84.974 76.0365 85.2734 76.1016L85.0488 78.2403C84.7233 78.1622 84.3848 78.1231 84.0332 78.1231C83.1152 78.1231 82.3698 78.4226 81.7969 79.0215C81.2305 79.6205 80.9473 80.3985 80.9473 81.3555V87.0001H78.6523V76.1993H80.4492L80.752 78.1036H80.8691C81.2272 77.459 81.6927 76.948 82.2656 76.5704C82.8451 76.1928 83.4668 76.004 84.1309 76.004ZM96.8652 81.5801C96.8652 83.3445 96.4128 84.7214 95.5078 85.711C94.6029 86.7006 93.3431 87.1954 91.7285 87.1954C90.7194 87.1954 89.8275 86.9675 89.0527 86.5118C88.278 86.0561 87.6823 85.4018 87.2656 84.5489C86.849 83.696 86.6406 82.7064 86.6406 81.5801C86.6406 79.8288 87.0898 78.4616 87.9883 77.4786C88.8867 76.4955 90.153 76.004 91.7871 76.004C93.3496 76.004 94.5866 76.5085 95.498 77.5176C96.4095 78.5202 96.8652 79.8744 96.8652 81.5801ZM89.0039 81.5801C89.0039 84.0736 89.9251 85.3204 91.7676 85.3204C93.5905 85.3204 94.502 84.0736 94.502 81.5801C94.502 79.1127 93.584 77.879 91.748 77.879C90.7845 77.879 90.0846 78.198 89.6484 78.836C89.2188 79.474 89.0039 80.3887 89.0039 81.5801ZM105.029 76.004C106.377 76.004 107.425 76.4922 108.174 77.4688C108.929 78.4454 109.307 79.8158 109.307 81.5801C109.307 83.351 108.926 84.7312 108.164 85.7208C107.402 86.7038 106.344 87.1954 104.99 87.1954C103.623 87.1954 102.562 86.7038 101.807 85.7208H101.65L101.23 87.0001H99.5117V71.8047H101.807V75.418C101.807 75.685 101.794 76.0821 101.768 76.6094C101.742 77.1368 101.722 77.4721 101.709 77.6153H101.807C102.536 76.5411 103.61 76.004 105.029 76.004ZM104.434 77.879C103.509 77.879 102.842 78.1524 102.432 78.6993C102.028 79.2396 101.82 80.1478 101.807 81.4239V81.5801C101.807 82.8952 102.015 83.849 102.432 84.4415C102.848 85.0274 103.529 85.3204 104.473 85.3204C105.286 85.3204 105.902 84.9981 106.318 84.3536C106.742 83.709 106.953 82.7781 106.953 81.5606C106.953 79.1062 106.113 77.879 104.434 77.879ZM114.268 87.0001H111.973V71.8047H114.268V87.0001ZM122.275 87.1954C120.596 87.1954 119.281 86.7071 118.33 85.7305C117.386 84.7475 116.914 83.3965 116.914 81.6778C116.914 79.9135 117.354 78.5268 118.232 77.5176C119.111 76.5085 120.319 76.004 121.855 76.004C123.281 76.004 124.408 76.4369 125.234 77.3028C126.061 78.1687 126.475 79.3601 126.475 80.877V82.1172H119.277C119.31 83.1654 119.593 83.9727 120.127 84.5391C120.661 85.099 121.413 85.379 122.383 85.379C123.021 85.379 123.613 85.3204 124.16 85.2032C124.714 85.0795 125.306 84.8777 125.938 84.5977V86.463C125.378 86.7299 124.811 86.9187 124.238 87.0294C123.665 87.14 123.011 87.1954 122.275 87.1954ZM121.855 77.7422C121.126 77.7422 120.54 77.9734 120.098 78.4356C119.661 78.8978 119.401 79.5717 119.316 80.4571H124.219C124.206 79.5652 123.991 78.8913 123.574 78.4356C123.158 77.9734 122.585 77.7422 121.855 77.7422ZM138.184 87.0001H135.879V80.3399C135.879 79.5131 135.723 78.8978 135.41 78.4942C135.098 78.084 134.609 77.879 133.945 77.879C133.06 77.879 132.409 78.1687 131.992 78.7481C131.582 79.321 131.377 80.2781 131.377 81.6192V87.0001H129.082V76.1993H130.879L131.201 77.6153H131.318C131.618 77.101 132.051 76.7038 132.617 76.4239C133.19 76.1439 133.818 76.004 134.502 76.004C136.162 76.004 137.262 76.5704 137.803 77.7032H137.959C138.278 77.1693 138.727 76.7527 139.307 76.4532C139.886 76.1537 140.55 76.004 141.299 76.004C142.588 76.004 143.525 76.3295 144.111 76.9805C144.704 77.6316 145 78.6244 145 79.959V87.0001H142.705V80.3399C142.705 79.5131 142.546 78.8978 142.227 78.4942C141.914 78.084 141.426 77.879 140.762 77.879C139.87 77.879 139.215 78.1589 138.799 78.7188C138.389 79.2722 138.184 80.1251 138.184 81.2774V87.0001ZM158.115 87.1954C156.436 87.1954 155.12 86.7071 154.17 85.7305C153.226 84.7475 152.754 83.3965 152.754 81.6778C152.754 79.9135 153.193 78.5268 154.072 77.5176C154.951 76.5085 156.159 76.004 157.695 76.004C159.121 76.004 160.247 76.4369 161.074 77.3028C161.901 78.1687 162.314 79.3601 162.314 80.877V82.1172H155.117C155.15 83.1654 155.433 83.9727 155.967 84.5391C156.501 85.099 157.253 85.379 158.223 85.379C158.861 85.379 159.453 85.3204 160 85.2032C160.553 85.0795 161.146 84.8777 161.777 84.5977V86.463C161.217 86.7299 160.651 86.9187 160.078 87.0294C159.505 87.14 158.851 87.1954 158.115 87.1954ZM157.695 77.7422C156.966 77.7422 156.38 77.9734 155.938 78.4356C155.501 78.8978 155.241 79.5717 155.156 80.4571H160.059C160.046 79.5652 159.831 78.8913 159.414 78.4356C158.997 77.9734 158.424 77.7422 157.695 77.7422ZM170.342 77.9376H167.705V87.0001H165.4V77.9376H163.623V76.8633L165.4 76.1602V75.4571C165.4 74.1811 165.7 73.237 166.299 72.6251C166.898 72.0066 167.812 71.6973 169.043 71.6973C169.85 71.6973 170.645 71.8308 171.426 72.0977L170.82 73.836C170.254 73.6537 169.714 73.5626 169.199 73.5626C168.678 73.5626 168.298 73.7253 168.057 74.0508C167.822 74.3699 167.705 74.8516 167.705 75.4962V76.1993H170.342V77.9376ZM177.598 77.9376H174.961V87.0001H172.656V77.9376H170.879V76.8633L172.656 76.1602V75.4571C172.656 74.1811 172.956 73.237 173.555 72.6251C174.154 72.0066 175.068 71.6973 176.299 71.6973C177.106 71.6973 177.9 71.8308 178.682 72.0977L178.076 73.836C177.51 73.6537 176.969 73.5626 176.455 73.5626C175.934 73.5626 175.553 73.7253 175.312 74.0508C175.078 74.3699 174.961 74.8516 174.961 75.4962V76.1993H177.598V77.9376ZM184.17 87.1954C182.49 87.1954 181.175 86.7071 180.225 85.7305C179.281 84.7475 178.809 83.3965 178.809 81.6778C178.809 79.9135 179.248 78.5268 180.127 77.5176C181.006 76.5085 182.214 76.004 183.75 76.004C185.176 76.004 186.302 76.4369 187.129 77.3028C187.956 78.1687 188.369 79.3601 188.369 80.877V82.1172H181.172C181.204 83.1654 181.488 83.9727 182.021 84.5391C182.555 85.099 183.307 85.379 184.277 85.379C184.915 85.379 185.508 85.3204 186.055 85.2032C186.608 85.0795 187.201 84.8777 187.832 84.5977V86.463C187.272 86.7299 186.706 86.9187 186.133 87.0294C185.56 87.14 184.906 87.1954 184.17 87.1954ZM183.75 77.7422C183.021 77.7422 182.435 77.9734 181.992 78.4356C181.556 78.8978 181.296 79.5717 181.211 80.4571H186.113C186.1 79.5652 185.885 78.8913 185.469 78.4356C185.052 77.9734 184.479 77.7422 183.75 77.7422ZM195.332 87.1954C193.698 87.1954 192.454 86.7201 191.602 85.7696C190.755 84.8126 190.332 83.4421 190.332 81.6583C190.332 79.8419 190.775 78.4454 191.66 77.4688C192.552 76.4922 193.838 76.004 195.518 76.004C196.657 76.004 197.682 76.2156 198.594 76.6387L197.9 78.4844C196.93 78.1068 196.13 77.918 195.498 77.918C193.63 77.918 192.695 79.1583 192.695 81.6387C192.695 82.8497 192.926 83.7611 193.389 84.3731C193.857 84.9786 194.541 85.2813 195.439 85.2813C196.462 85.2813 197.428 85.0274 198.34 84.5196V86.5215C197.93 86.7624 197.49 86.935 197.021 87.0391C196.559 87.1433 195.996 87.1954 195.332 87.1954ZM204.902 85.3399C205.462 85.3399 206.022 85.252 206.582 85.0762V86.8047C206.328 86.9154 205.999 87.0066 205.596 87.0782C205.199 87.1563 204.785 87.1954 204.355 87.1954C202.181 87.1954 201.094 86.0495 201.094 83.7579V77.9376H199.619V76.9219L201.201 76.0821L201.982 73.7969H203.398V76.1993H206.475V77.9376H203.398V83.7188C203.398 84.2722 203.535 84.6824 203.809 84.9493C204.089 85.2097 204.453 85.3399 204.902 85.3399ZM216.006 83.9239C216.006 84.9786 215.622 85.7891 214.854 86.3555C214.085 86.9154 212.985 87.1954 211.553 87.1954C210.114 87.1954 208.958 86.9773 208.086 86.5411V84.5587C209.355 85.1446 210.537 85.4376 211.631 85.4376C213.044 85.4376 213.75 85.0111 213.75 84.1583C213.75 83.8848 213.672 83.657 213.516 83.4747C213.359 83.2924 213.102 83.1036 212.744 82.9083C212.386 82.713 211.888 82.4916 211.25 82.2442C210.007 81.7624 209.163 81.2807 208.721 80.7989C208.285 80.3171 208.066 79.6921 208.066 78.9239C208.066 77.9994 208.438 77.2833 209.18 76.7755C209.928 76.2611 210.944 76.004 212.227 76.004C213.496 76.004 214.697 76.2611 215.83 76.7755L215.088 78.504C213.923 78.0222 212.943 77.7813 212.148 77.7813C210.938 77.7813 210.332 78.1264 210.332 78.8165C210.332 79.155 210.488 79.4415 210.801 79.6758C211.12 79.9102 211.81 80.2325 212.871 80.6426C213.763 80.9877 214.411 81.3034 214.814 81.5899C215.218 81.8764 215.518 82.2084 215.713 82.586C215.908 82.9571 216.006 83.4031 216.006 83.9239ZM29.2578 112L28.9355 110.584H28.8184C28.4993 111.085 28.0436 111.479 27.4512 111.766C26.8652 112.052 26.1947 112.195 25.4395 112.195C24.1309 112.195 23.1543 111.87 22.5098 111.219C21.8652 110.568 21.543 109.581 21.543 108.26V101.199H23.8574V107.859C23.8574 108.686 24.0267 109.308 24.3652 109.725C24.7038 110.135 25.2344 110.34 25.957 110.34C26.9206 110.34 27.627 110.053 28.0762 109.481C28.5319 108.901 28.7598 107.934 28.7598 106.58V101.199H31.0645V112H29.2578ZM41.5918 108.924C41.5918 109.979 41.2077 110.789 40.4395 111.356C39.6712 111.915 38.571 112.195 37.1387 112.195C35.6999 112.195 34.5443 111.977 33.6719 111.541V109.559C34.9414 110.145 36.123 110.438 37.2168 110.438C38.6296 110.438 39.3359 110.011 39.3359 109.158C39.3359 108.885 39.2578 108.657 39.1016 108.475C38.9453 108.292 38.6882 108.104 38.3301 107.908C37.972 107.713 37.474 107.492 36.8359 107.244C35.5924 106.762 34.7493 106.281 34.3066 105.799C33.8704 105.317 33.6523 104.692 33.6523 103.924C33.6523 102.999 34.0234 102.283 34.7656 101.775C35.5143 101.261 36.5299 101.004 37.8125 101.004C39.082 101.004 40.2832 101.261 41.416 101.775L40.6738 103.504C39.5085 103.022 38.5286 102.781 37.7344 102.781C36.5234 102.781 35.918 103.126 35.918 103.816C35.918 104.155 36.0742 104.441 36.3867 104.676C36.7057 104.91 37.3958 105.232 38.457 105.643C39.349 105.988 39.9967 106.303 40.4004 106.59C40.804 106.876 41.1035 107.208 41.2988 107.586C41.4941 107.957 41.5918 108.403 41.5918 108.924ZM56.0352 112L55.5762 110.496H55.498C54.9772 111.154 54.4531 111.603 53.9258 111.844C53.3984 112.078 52.7214 112.195 51.8945 112.195C50.8333 112.195 50.0033 111.909 49.4043 111.336C48.8118 110.763 48.5156 109.953 48.5156 108.904C48.5156 107.791 48.929 106.951 49.7559 106.385C50.5827 105.818 51.8424 105.509 53.5352 105.457L55.4004 105.398V104.822C55.4004 104.132 55.2376 103.618 54.9121 103.279C54.5931 102.934 54.0951 102.762 53.418 102.762C52.8646 102.762 52.334 102.843 51.8262 103.006C51.3184 103.169 50.8301 103.361 50.3613 103.582L49.6191 101.941C50.2051 101.635 50.8464 101.404 51.543 101.248C52.2396 101.085 52.8971 101.004 53.5156 101.004C54.8893 101.004 55.9245 101.303 56.6211 101.902C57.3242 102.501 57.6758 103.442 57.6758 104.725V112H56.0352ZM52.6172 110.438C53.4505 110.438 54.1178 110.206 54.6191 109.744C55.127 109.275 55.3809 108.621 55.3809 107.781V106.844L53.9941 106.902C52.9134 106.941 52.1257 107.124 51.6309 107.449C51.1426 107.768 50.8984 108.26 50.8984 108.924C50.8984 109.406 51.0417 109.78 51.3281 110.047C51.6146 110.307 52.0443 110.438 52.6172 110.438ZM63.1738 112H60.8789V96.8047H63.1738V112ZM68.7598 112H66.4648V96.8047H68.7598V112ZM71.709 110.779C71.709 110.304 71.8327 109.94 72.0801 109.686C72.3275 109.432 72.6855 109.305 73.1543 109.305C73.6296 109.305 73.9909 109.438 74.2383 109.705C74.4857 109.966 74.6094 110.324 74.6094 110.779C74.6094 111.242 74.4824 111.609 74.2285 111.883C73.9811 112.15 73.623 112.283 73.1543 112.283C72.6855 112.283 72.3275 112.15 72.0801 111.883C71.8327 111.616 71.709 111.248 71.709 110.779Z" fill="white"/>
<rect x="60.5" y="173.5" width="92" height="33" rx="4.5" fill="white" stroke="#8577D9"/>
<path d="M62.9531 155.654H64.0879C64.849 155.654 65.4004 155.513 65.7422 155.231C66.084 154.948 66.2549 154.529 66.2549 153.973C66.2549 153.408 66.0703 153.002 65.7012 152.756C65.332 152.51 64.776 152.387 64.0332 152.387H62.9531V155.654ZM62.9531 157.008V161H61.3193V151.006H64.1426C65.4323 151.006 66.387 151.247 67.0068 151.731C67.6266 152.214 67.9365 152.943 67.9365 153.918C67.9365 155.162 67.2894 156.049 65.9951 156.577L68.8184 161H66.959L64.5664 157.008H62.9531ZM73.4053 161.137C72.2295 161.137 71.3089 160.795 70.6436 160.111C69.9827 159.423 69.6523 158.478 69.6523 157.274C69.6523 156.039 69.96 155.069 70.5752 154.362C71.1904 153.656 72.0358 153.303 73.1113 153.303C74.1094 153.303 74.8978 153.606 75.4766 154.212C76.0553 154.818 76.3447 155.652 76.3447 156.714V157.582H71.3066C71.3294 158.316 71.5277 158.881 71.9014 159.277C72.2751 159.669 72.8014 159.865 73.4805 159.865C73.9271 159.865 74.3418 159.824 74.7246 159.742C75.112 159.656 75.5267 159.514 75.9688 159.318V160.624C75.5768 160.811 75.1803 160.943 74.7793 161.021C74.3783 161.098 73.9202 161.137 73.4053 161.137ZM73.1113 154.52C72.6009 154.52 72.1908 154.681 71.8809 155.005C71.5755 155.329 71.3932 155.8 71.334 156.42H74.7656C74.7565 155.796 74.6061 155.324 74.3145 155.005C74.0228 154.681 73.6217 154.52 73.1113 154.52ZM82.0049 161.137C81.0479 161.137 80.305 160.793 79.7764 160.105H79.6807C79.7445 160.743 79.7764 161.13 79.7764 161.267V164.363H78.1699V153.44H79.4688C79.5052 153.581 79.5804 153.918 79.6943 154.451H79.7764C80.2777 153.686 81.0296 153.303 82.0322 153.303C82.9756 153.303 83.7093 153.645 84.2334 154.328C84.762 155.012 85.0264 155.971 85.0264 157.206C85.0264 158.441 84.7575 159.405 84.2197 160.098C83.6865 160.79 82.9482 161.137 82.0049 161.137ZM81.6152 154.615C80.9772 154.615 80.5101 154.802 80.2139 155.176C79.9222 155.55 79.7764 156.147 79.7764 156.967V157.206C79.7764 158.127 79.9222 158.794 80.2139 159.209C80.5055 159.619 80.9818 159.824 81.6426 159.824C82.1986 159.824 82.627 159.596 82.9277 159.141C83.2285 158.685 83.3789 158.036 83.3789 157.192C83.3789 156.345 83.2285 155.704 82.9277 155.272C82.6315 154.834 82.194 154.615 81.6152 154.615ZM88.499 161H86.8926V150.363H88.499V161ZM95.5332 161L95.2119 159.947H95.1572C94.7926 160.408 94.4258 160.722 94.0566 160.891C93.6875 161.055 93.2135 161.137 92.6348 161.137C91.8919 161.137 91.3109 160.936 90.8916 160.535C90.4769 160.134 90.2695 159.567 90.2695 158.833C90.2695 158.054 90.5589 157.466 91.1377 157.069C91.7165 156.673 92.5983 156.456 93.7832 156.42L95.0889 156.379V155.976C95.0889 155.493 94.9749 155.133 94.7471 154.896C94.5238 154.654 94.1751 154.533 93.7012 154.533C93.3138 154.533 92.9424 154.59 92.5869 154.704C92.2314 154.818 91.8896 154.953 91.5615 155.107L91.042 153.959C91.4521 153.745 91.901 153.583 92.3887 153.474C92.8763 153.36 93.3366 153.303 93.7695 153.303C94.7311 153.303 95.4557 153.512 95.9434 153.932C96.4355 154.351 96.6816 155.01 96.6816 155.907V161H95.5332ZM93.1406 159.906C93.724 159.906 94.1911 159.745 94.542 159.421C94.8975 159.093 95.0752 158.635 95.0752 158.047V157.391L94.1045 157.432C93.348 157.459 92.7965 157.587 92.4502 157.815C92.1084 158.038 91.9375 158.382 91.9375 158.847C91.9375 159.184 92.0378 159.446 92.2383 159.633C92.4388 159.815 92.7396 159.906 93.1406 159.906ZM101.973 161.137C100.829 161.137 99.9583 160.804 99.3613 160.139C98.7689 159.469 98.4727 158.51 98.4727 157.261C98.4727 155.989 98.7826 155.012 99.4023 154.328C100.027 153.645 100.927 153.303 102.103 153.303C102.9 153.303 103.618 153.451 104.256 153.747L103.771 155.039C103.091 154.775 102.531 154.643 102.089 154.643C100.781 154.643 100.127 155.511 100.127 157.247C100.127 158.095 100.289 158.733 100.612 159.161C100.94 159.585 101.419 159.797 102.048 159.797C102.763 159.797 103.44 159.619 104.078 159.264V160.665C103.791 160.834 103.483 160.954 103.155 161.027C102.832 161.1 102.438 161.137 101.973 161.137ZM109.157 161.137C107.981 161.137 107.061 160.795 106.396 160.111C105.735 159.423 105.404 158.478 105.404 157.274C105.404 156.039 105.712 155.069 106.327 154.362C106.942 153.656 107.788 153.303 108.863 153.303C109.861 153.303 110.65 153.606 111.229 154.212C111.807 154.818 112.097 155.652 112.097 156.714V157.582H107.059C107.081 158.316 107.28 158.881 107.653 159.277C108.027 159.669 108.553 159.865 109.232 159.865C109.679 159.865 110.094 159.824 110.477 159.742C110.864 159.656 111.279 159.514 111.721 159.318V160.624C111.329 160.811 110.932 160.943 110.531 161.021C110.13 161.098 109.672 161.137 109.157 161.137ZM108.863 154.52C108.353 154.52 107.943 154.681 107.633 155.005C107.327 155.329 107.145 155.8 107.086 156.42H110.518C110.508 155.796 110.358 155.324 110.066 155.005C109.775 154.681 109.374 154.52 108.863 154.52ZM123.759 161L122.781 157.473C122.663 157.099 122.449 156.231 122.139 154.868H122.077C121.813 156.099 121.603 156.971 121.448 157.486L120.443 161H118.666L116.547 153.44H118.188L119.151 157.165C119.37 158.086 119.525 158.874 119.616 159.53H119.657C119.703 159.198 119.771 158.817 119.862 158.389C119.958 157.956 120.04 157.632 120.108 157.418L121.257 153.44H123.021L124.135 157.418C124.203 157.641 124.287 157.983 124.388 158.443C124.493 158.904 124.554 159.261 124.572 159.517H124.627C124.695 158.956 124.855 158.172 125.105 157.165L126.083 153.44H127.696L125.563 161H123.759ZM130.608 161H129.002V153.44H130.608V161ZM128.906 151.437C128.906 151.149 128.984 150.928 129.139 150.773C129.298 150.619 129.524 150.541 129.815 150.541C130.098 150.541 130.317 150.619 130.472 150.773C130.631 150.928 130.711 151.149 130.711 151.437C130.711 151.71 130.631 151.926 130.472 152.086C130.317 152.241 130.098 152.318 129.815 152.318C129.524 152.318 129.298 152.241 129.139 152.086C128.984 151.926 128.906 151.71 128.906 151.437ZM135.729 159.838C136.12 159.838 136.512 159.776 136.904 159.653V160.863C136.727 160.941 136.496 161.005 136.214 161.055C135.936 161.109 135.646 161.137 135.346 161.137C133.824 161.137 133.062 160.335 133.062 158.731V154.656H132.03V153.945L133.138 153.357L133.685 151.758H134.676V153.44H136.829V154.656H134.676V158.703C134.676 159.091 134.771 159.378 134.963 159.565C135.159 159.747 135.414 159.838 135.729 159.838ZM145.073 161H143.46V156.352C143.46 155.768 143.341 155.333 143.104 155.046C142.872 154.759 142.501 154.615 141.99 154.615C141.316 154.615 140.819 154.818 140.5 155.224C140.186 155.625 140.028 156.299 140.028 157.247V161H138.422V150.363H140.028V153.064C140.028 153.496 140.001 153.959 139.946 154.451H140.049C140.268 154.087 140.571 153.804 140.958 153.604C141.35 153.403 141.806 153.303 142.325 153.303C144.157 153.303 145.073 154.226 145.073 156.071V161Z" fill="#999999"/>
<path d="M81.8105 197L81.3516 195.496H81.2734C80.7526 196.154 80.2285 196.603 79.7012 196.844C79.1738 197.078 78.4967 197.195 77.6699 197.195C76.6087 197.195 75.7786 196.909 75.1797 196.336C74.5872 195.763 74.291 194.953 74.291 193.904C74.291 192.791 74.7044 191.951 75.5312 191.385C76.3581 190.818 77.6178 190.509 79.3105 190.457L81.1758 190.398V189.822C81.1758 189.132 81.013 188.618 80.6875 188.279C80.3685 187.934 79.8704 187.762 79.1934 187.762C78.64 187.762 78.1094 187.843 77.6016 188.006C77.0938 188.169 76.6055 188.361 76.1367 188.582L75.3945 186.941C75.9805 186.635 76.6217 186.404 77.3184 186.248C78.015 186.085 78.6725 186.004 79.291 186.004C80.6647 186.004 81.6999 186.303 82.3965 186.902C83.0996 187.501 83.4512 188.442 83.4512 189.725V197H81.8105ZM78.3926 195.438C79.2259 195.438 79.8932 195.206 80.3945 194.744C80.9023 194.275 81.1562 193.621 81.1562 192.781V191.844L79.7695 191.902C78.6888 191.941 77.901 192.124 77.4062 192.449C76.918 192.768 76.6738 193.26 76.6738 193.924C76.6738 194.406 76.8171 194.78 77.1035 195.047C77.39 195.307 77.8197 195.438 78.3926 195.438ZM92.0742 187.938H89.4375V197H87.1328V187.938H85.3555V186.863L87.1328 186.16V185.457C87.1328 184.181 87.4323 183.237 88.0312 182.625C88.6302 182.007 89.5449 181.697 90.7754 181.697C91.5827 181.697 92.377 181.831 93.1582 182.098L92.5527 183.836C91.9863 183.654 91.446 183.563 90.9316 183.563C90.4108 183.563 90.0299 183.725 89.7891 184.051C89.5547 184.37 89.4375 184.852 89.4375 185.496V186.199H92.0742V187.938ZM99.3301 187.938H96.6934V197H94.3887V187.938H92.6113V186.863L94.3887 186.16V185.457C94.3887 184.181 94.6882 183.237 95.2871 182.625C95.8861 182.007 96.8008 181.697 98.0312 181.697C98.8385 181.697 99.6328 181.831 100.414 182.098L99.8086 183.836C99.2422 183.654 98.7018 183.563 98.1875 183.563C97.6667 183.563 97.2858 183.725 97.0449 184.051C96.8105 184.37 96.6934 184.852 96.6934 185.496V186.199H99.3301V187.938ZM105.902 197.195C104.223 197.195 102.908 196.707 101.957 195.731C101.013 194.747 100.541 193.397 100.541 191.678C100.541 189.913 100.98 188.527 101.859 187.518C102.738 186.509 103.946 186.004 105.482 186.004C106.908 186.004 108.035 186.437 108.861 187.303C109.688 188.169 110.102 189.36 110.102 190.877V192.117H102.904C102.937 193.165 103.22 193.973 103.754 194.539C104.288 195.099 105.04 195.379 106.01 195.379C106.648 195.379 107.24 195.32 107.787 195.203C108.34 195.079 108.933 194.878 109.564 194.598V196.463C109.005 196.73 108.438 196.919 107.865 197.029C107.292 197.14 106.638 197.195 105.902 197.195ZM105.482 187.742C104.753 187.742 104.167 187.973 103.725 188.436C103.288 188.898 103.028 189.572 102.943 190.457H107.846C107.833 189.565 107.618 188.891 107.201 188.436C106.785 187.973 106.212 187.742 105.482 187.742ZM117.064 197.195C115.43 197.195 114.187 196.72 113.334 195.77C112.488 194.813 112.064 193.442 112.064 191.658C112.064 189.842 112.507 188.445 113.393 187.469C114.285 186.492 115.57 186.004 117.25 186.004C118.389 186.004 119.415 186.216 120.326 186.639L119.633 188.484C118.663 188.107 117.862 187.918 117.23 187.918C115.362 187.918 114.428 189.158 114.428 191.639C114.428 192.85 114.659 193.761 115.121 194.373C115.59 194.979 116.273 195.281 117.172 195.281C118.194 195.281 119.161 195.027 120.072 194.52V196.522C119.662 196.762 119.223 196.935 118.754 197.039C118.292 197.143 117.729 197.195 117.064 197.195ZM126.635 195.34C127.195 195.34 127.755 195.252 128.314 195.076V196.805C128.061 196.915 127.732 197.007 127.328 197.078C126.931 197.156 126.518 197.195 126.088 197.195C123.913 197.195 122.826 196.05 122.826 193.758V187.938H121.352V186.922L122.934 186.082L123.715 183.797H125.131V186.199H128.207V187.938H125.131V193.719C125.131 194.272 125.268 194.682 125.541 194.949C125.821 195.21 126.186 195.34 126.635 195.34ZM137.738 193.924C137.738 194.979 137.354 195.789 136.586 196.356C135.818 196.915 134.717 197.195 133.285 197.195C131.846 197.195 130.691 196.977 129.818 196.541V194.559C131.088 195.145 132.27 195.438 133.363 195.438C134.776 195.438 135.482 195.011 135.482 194.158C135.482 193.885 135.404 193.657 135.248 193.475C135.092 193.292 134.835 193.104 134.477 192.908C134.118 192.713 133.62 192.492 132.982 192.244C131.739 191.762 130.896 191.281 130.453 190.799C130.017 190.317 129.799 189.692 129.799 188.924C129.799 187.999 130.17 187.283 130.912 186.775C131.661 186.261 132.676 186.004 133.959 186.004C135.229 186.004 136.43 186.261 137.562 186.775L136.82 188.504C135.655 188.022 134.675 187.781 133.881 187.781C132.67 187.781 132.064 188.126 132.064 188.816C132.064 189.155 132.221 189.441 132.533 189.676C132.852 189.91 133.542 190.232 134.604 190.643C135.495 190.988 136.143 191.303 136.547 191.59C136.951 191.876 137.25 192.208 137.445 192.586C137.641 192.957 137.738 193.403 137.738 193.924Z" fill="#8577D9"/>
<path d="M153 92.0001H217" stroke="#FFCC48" stroke-width="2"/>
<defs>
<filter id="filter0_d" x="34" y="131" width="199" height="105" filterUnits="userSpaceOnUse" color-interpolation-filters="sRGB">
<feFlood flood-opacity="0" result="BackgroundImageFix"/>
<feColorMatrix in="SourceAlpha" type="matrix" values="0 0 0 0 0 0 0 0 0 0 0 0 0 0 0 0 0 0 127 0"/>
<feOffset dy="3"/>
<feGaussianBlur stdDeviation="3.5"/>
<feColorMatrix type="matrix" values="0 0 0 0 0.0410243 0 0 0 0 0.385435 0 0 0 0 0.579167 0 0 0 0.4 0"/>
<feBlend mode="normal" in2="BackgroundImageFix" result="effect1_dropShadow"/>
<feBlend mode="normal" in="SourceGraphic" in2="effect1_dropShadow" result="shape"/>
</filter>
</defs>
</svg>
