<svg width="261" height="258" viewBox="0 0 261 258" fill="none" xmlns="http://www.w3.org/2000/svg">
<path opacity="0.5" d="M183.216 252.992L23.6514 210.376C9.95837 206.721 2.6373 191.475 8.09759 178.003L71.7795 20.9318C75.6815 11.3084 86.5232 6.83989 95.748 11.0513L228.62 71.7228C236.446 75.2964 240.676 84.0777 238.715 92.6786L205.34 239.21C203.031 249.367 193.013 255.605 183.216 252.992Z" fill="#E1F6FF"/>
<rect x="15" y="57" width="199" height="97" rx="11" fill="#6394F2"/>
<g filter="url(#filter0_d)">
<rect x="63" y="137.694" width="191" height="91" rx="11" fill="white"/>
</g>
<rect x="81.5" y="176.194" width="154" height="33" rx="16.5" fill="#6394F2" stroke="#6394F2"/>
<path d="M83.9531 158.654H85.0879C85.849 158.654 86.4004 158.513 86.7422 158.23C87.084 157.948 87.2549 157.529 87.2549 156.973C87.2549 156.408 87.0703 156.002 86.7012 155.756C86.332 155.51 85.776 155.387 85.0332 155.387H83.9531V158.654ZM83.9531 160.008V164H82.3193V154.006H85.1426C86.4323 154.006 87.387 154.247 88.0068 154.73C88.6266 155.214 88.9365 155.943 88.9365 156.918C88.9365 158.162 88.2894 159.049 86.9951 159.577L89.8184 164H87.959L85.5664 160.008H83.9531ZM94.4053 164.137C93.2295 164.137 92.3089 163.795 91.6436 163.111C90.9827 162.423 90.6523 161.478 90.6523 160.274C90.6523 159.039 90.96 158.069 91.5752 157.362C92.1904 156.656 93.0358 156.303 94.1113 156.303C95.1094 156.303 95.8978 156.606 96.4766 157.212C97.0553 157.818 97.3447 158.652 97.3447 159.714V160.582H92.3066C92.3294 161.316 92.5277 161.881 92.9014 162.277C93.2751 162.669 93.8014 162.865 94.4805 162.865C94.9271 162.865 95.3418 162.824 95.7246 162.742C96.112 162.656 96.5267 162.514 96.9688 162.318V163.624C96.5768 163.811 96.1803 163.943 95.7793 164.021C95.3783 164.098 94.9202 164.137 94.4053 164.137ZM94.1113 157.52C93.6009 157.52 93.1908 157.681 92.8809 158.005C92.5755 158.328 92.3932 158.8 92.334 159.42H95.7656C95.7565 158.796 95.6061 158.324 95.3145 158.005C95.0228 157.681 94.6217 157.52 94.1113 157.52ZM103.005 164.137C102.048 164.137 101.305 163.793 100.776 163.105H100.681C100.744 163.743 100.776 164.13 100.776 164.267V167.363H99.1699V156.439H100.469C100.505 156.581 100.58 156.918 100.694 157.451H100.776C101.278 156.686 102.03 156.303 103.032 156.303C103.976 156.303 104.709 156.645 105.233 157.328C105.762 158.012 106.026 158.971 106.026 160.206C106.026 161.441 105.757 162.405 105.22 163.098C104.687 163.79 103.948 164.137 103.005 164.137ZM102.615 157.615C101.977 157.615 101.51 157.802 101.214 158.176C100.922 158.549 100.776 159.146 100.776 159.967V160.206C100.776 161.127 100.922 161.794 101.214 162.209C101.506 162.619 101.982 162.824 102.643 162.824C103.199 162.824 103.627 162.596 103.928 162.141C104.229 161.685 104.379 161.035 104.379 160.192C104.379 159.345 104.229 158.704 103.928 158.271C103.632 157.834 103.194 157.615 102.615 157.615ZM109.499 164H107.893V153.363H109.499V164ZM116.533 164L116.212 162.947H116.157C115.793 163.408 115.426 163.722 115.057 163.891C114.688 164.055 114.214 164.137 113.635 164.137C112.892 164.137 112.311 163.936 111.892 163.535C111.477 163.134 111.27 162.567 111.27 161.833C111.27 161.054 111.559 160.466 112.138 160.069C112.716 159.673 113.598 159.456 114.783 159.42L116.089 159.379V158.976C116.089 158.493 115.975 158.133 115.747 157.896C115.524 157.654 115.175 157.533 114.701 157.533C114.314 157.533 113.942 157.59 113.587 157.704C113.231 157.818 112.89 157.952 112.562 158.107L112.042 156.959C112.452 156.745 112.901 156.583 113.389 156.474C113.876 156.36 114.337 156.303 114.77 156.303C115.731 156.303 116.456 156.512 116.943 156.932C117.436 157.351 117.682 158.009 117.682 158.907V164H116.533ZM114.141 162.906C114.724 162.906 115.191 162.744 115.542 162.421C115.897 162.093 116.075 161.635 116.075 161.047V160.391L115.104 160.432C114.348 160.459 113.797 160.587 113.45 160.814C113.108 161.038 112.938 161.382 112.938 161.847C112.938 162.184 113.038 162.446 113.238 162.633C113.439 162.815 113.74 162.906 114.141 162.906ZM122.973 164.137C121.829 164.137 120.958 163.804 120.361 163.139C119.769 162.469 119.473 161.509 119.473 160.261C119.473 158.989 119.783 158.012 120.402 157.328C121.027 156.645 121.927 156.303 123.103 156.303C123.9 156.303 124.618 156.451 125.256 156.747L124.771 158.039C124.091 157.775 123.531 157.643 123.089 157.643C121.781 157.643 121.127 158.511 121.127 160.247C121.127 161.095 121.289 161.733 121.612 162.161C121.94 162.585 122.419 162.797 123.048 162.797C123.763 162.797 124.44 162.619 125.078 162.264V163.665C124.791 163.834 124.483 163.954 124.155 164.027C123.832 164.1 123.438 164.137 122.973 164.137ZM130.157 164.137C128.981 164.137 128.061 163.795 127.396 163.111C126.735 162.423 126.404 161.478 126.404 160.274C126.404 159.039 126.712 158.069 127.327 157.362C127.942 156.656 128.788 156.303 129.863 156.303C130.861 156.303 131.65 156.606 132.229 157.212C132.807 157.818 133.097 158.652 133.097 159.714V160.582H128.059C128.081 161.316 128.28 161.881 128.653 162.277C129.027 162.669 129.553 162.865 130.232 162.865C130.679 162.865 131.094 162.824 131.477 162.742C131.864 162.656 132.279 162.514 132.721 162.318V163.624C132.329 163.811 131.932 163.943 131.531 164.021C131.13 164.098 130.672 164.137 130.157 164.137ZM129.863 157.52C129.353 157.52 128.943 157.681 128.633 158.005C128.327 158.328 128.145 158.8 128.086 159.42H131.518C131.508 158.796 131.358 158.324 131.066 158.005C130.775 157.681 130.374 157.52 129.863 157.52ZM144.759 164L143.781 160.473C143.663 160.099 143.449 159.231 143.139 157.868H143.077C142.813 159.099 142.603 159.971 142.448 160.486L141.443 164H139.666L137.547 156.439H139.188L140.151 160.165C140.37 161.086 140.525 161.874 140.616 162.53H140.657C140.703 162.198 140.771 161.817 140.862 161.389C140.958 160.956 141.04 160.632 141.108 160.418L142.257 156.439H144.021L145.135 160.418C145.203 160.641 145.287 160.983 145.388 161.443C145.493 161.904 145.554 162.261 145.572 162.517H145.627C145.695 161.956 145.855 161.172 146.105 160.165L147.083 156.439H148.696L146.563 164H144.759ZM151.608 164H150.002V156.439H151.608V164ZM149.906 154.437C149.906 154.149 149.984 153.928 150.139 153.773C150.298 153.619 150.524 153.541 150.815 153.541C151.098 153.541 151.317 153.619 151.472 153.773C151.631 153.928 151.711 154.149 151.711 154.437C151.711 154.71 151.631 154.926 151.472 155.086C151.317 155.241 151.098 155.318 150.815 155.318C150.524 155.318 150.298 155.241 150.139 155.086C149.984 154.926 149.906 154.71 149.906 154.437ZM156.729 162.838C157.12 162.838 157.512 162.776 157.904 162.653V163.863C157.727 163.941 157.496 164.005 157.214 164.055C156.936 164.109 156.646 164.137 156.346 164.137C154.824 164.137 154.062 163.335 154.062 161.73V157.656H153.03V156.945L154.138 156.357L154.685 154.758H155.676V156.439H157.829V157.656H155.676V161.703C155.676 162.091 155.771 162.378 155.963 162.564C156.159 162.747 156.414 162.838 156.729 162.838ZM166.073 164H164.46V159.352C164.46 158.768 164.341 158.333 164.104 158.046C163.872 157.759 163.501 157.615 162.99 157.615C162.316 157.615 161.819 157.818 161.5 158.224C161.186 158.625 161.028 159.299 161.028 160.247V164H159.422V153.363H161.028V156.063C161.028 156.496 161.001 156.959 160.946 157.451H161.049C161.268 157.087 161.571 156.804 161.958 156.604C162.35 156.403 162.806 156.303 163.325 156.303C165.157 156.303 166.073 157.226 166.073 159.071V164Z" fill="#999999"/>
<path d="M102.199 200H99.8848V185.723H107.941V187.695H102.199V192.158H107.58V194.141H102.199V200ZM112.58 200H110.285V189.199H112.58V200ZM110.148 186.338C110.148 185.928 110.259 185.612 110.48 185.391C110.708 185.169 111.031 185.059 111.447 185.059C111.851 185.059 112.163 185.169 112.385 185.391C112.613 185.612 112.727 185.928 112.727 186.338C112.727 186.729 112.613 187.038 112.385 187.266C112.163 187.487 111.851 187.598 111.447 187.598C111.031 187.598 110.708 187.487 110.48 187.266C110.259 187.038 110.148 186.729 110.148 186.338ZM118.273 194.482L114.65 189.199H117.268L119.729 192.979L122.209 189.199H124.807L121.174 194.482L124.992 200H122.395L119.729 195.957L117.072 200H114.475L118.273 194.482ZM141.184 200L139.758 196.035H134.299L132.902 200H130.441L135.783 185.664H138.322L143.664 200H141.184ZM139.143 194.023L137.805 190.137C137.707 189.876 137.57 189.466 137.395 188.906C137.225 188.346 137.108 187.936 137.043 187.676C136.867 188.477 136.61 189.352 136.271 190.303L134.982 194.023H139.143ZM147.6 200H145.305V184.805H147.6V200ZM153.186 200H150.891V184.805H153.186V200ZM169.992 200H161.916V185.723H169.992V187.695H164.25V191.582H169.631V193.535H164.25V198.018H169.992V200ZM178.322 189.004C178.785 189.004 179.165 189.036 179.465 189.102L179.24 191.24C178.915 191.162 178.576 191.123 178.225 191.123C177.307 191.123 176.561 191.423 175.988 192.021C175.422 192.62 175.139 193.398 175.139 194.355V200H172.844V189.199H174.641L174.943 191.104H175.061C175.419 190.459 175.884 189.948 176.457 189.57C177.036 189.193 177.658 189.004 178.322 189.004ZM186.955 189.004C187.417 189.004 187.798 189.036 188.098 189.102L187.873 191.24C187.548 191.162 187.209 191.123 186.857 191.123C185.939 191.123 185.194 191.423 184.621 192.021C184.055 192.62 183.771 193.398 183.771 194.355V200H181.477V189.199H183.273L183.576 191.104H183.693C184.051 190.459 184.517 189.948 185.09 189.57C185.669 189.193 186.291 189.004 186.955 189.004ZM199.689 194.58C199.689 196.344 199.237 197.721 198.332 198.711C197.427 199.701 196.167 200.195 194.553 200.195C193.544 200.195 192.652 199.967 191.877 199.512C191.102 199.056 190.507 198.402 190.09 197.549C189.673 196.696 189.465 195.706 189.465 194.58C189.465 192.829 189.914 191.462 190.812 190.479C191.711 189.495 192.977 189.004 194.611 189.004C196.174 189.004 197.411 189.508 198.322 190.518C199.234 191.52 199.689 192.874 199.689 194.58ZM191.828 194.58C191.828 197.074 192.749 198.32 194.592 198.32C196.415 198.32 197.326 197.074 197.326 194.58C197.326 192.113 196.408 190.879 194.572 190.879C193.609 190.879 192.909 191.198 192.473 191.836C192.043 192.474 191.828 193.389 191.828 194.58ZM207.814 189.004C208.277 189.004 208.658 189.036 208.957 189.102L208.732 191.24C208.407 191.162 208.068 191.123 207.717 191.123C206.799 191.123 206.053 191.423 205.48 192.021C204.914 192.62 204.631 193.398 204.631 194.355V200H202.336V189.199H204.133L204.436 191.104H204.553C204.911 190.459 205.376 189.948 205.949 189.57C206.529 189.193 207.15 189.004 207.814 189.004ZM218.225 196.924C218.225 197.979 217.84 198.789 217.072 199.355C216.304 199.915 215.204 200.195 213.771 200.195C212.333 200.195 211.177 199.977 210.305 199.541V197.559C211.574 198.145 212.756 198.438 213.85 198.438C215.262 198.438 215.969 198.011 215.969 197.158C215.969 196.885 215.891 196.657 215.734 196.475C215.578 196.292 215.321 196.104 214.963 195.908C214.605 195.713 214.107 195.492 213.469 195.244C212.225 194.762 211.382 194.281 210.939 193.799C210.503 193.317 210.285 192.692 210.285 191.924C210.285 190.999 210.656 190.283 211.398 189.775C212.147 189.261 213.163 189.004 214.445 189.004C215.715 189.004 216.916 189.261 218.049 189.775L217.307 191.504C216.141 191.022 215.161 190.781 214.367 190.781C213.156 190.781 212.551 191.126 212.551 191.816C212.551 192.155 212.707 192.441 213.02 192.676C213.339 192.91 214.029 193.232 215.09 193.643C215.982 193.988 216.63 194.303 217.033 194.59C217.437 194.876 217.736 195.208 217.932 195.586C218.127 195.957 218.225 196.403 218.225 196.924Z" fill="white"/>
<line x1="131" y1="97" x2="191" y2="97" stroke="#A1C764" stroke-width="2"/>
<path d="M43.8965 88.9238C43.8965 89.9785 43.5124 90.7891 42.7441 91.3555C41.9759 91.9154 40.8757 92.1953 39.4434 92.1953C38.0046 92.1953 36.849 91.9772 35.9766 91.541V89.5586C37.2461 90.1445 38.4277 90.4375 39.5215 90.4375C40.9342 90.4375 41.6406 90.0111 41.6406 89.1582C41.6406 88.8848 41.5625 88.6569 41.4062 88.4746C41.25 88.2923 40.9928 88.1035 40.6348 87.9082C40.2767 87.7129 39.7786 87.4915 39.1406 87.2441C37.8971 86.7624 37.054 86.2806 36.6113 85.7988C36.1751 85.3171 35.957 84.6921 35.957 83.9238C35.957 82.9993 36.3281 82.2832 37.0703 81.7754C37.819 81.2611 38.8346 81.0039 40.1172 81.0039C41.3867 81.0039 42.5879 81.2611 43.7207 81.7754L42.9785 83.5039C41.8132 83.0221 40.8333 82.7812 40.0391 82.7812C38.8281 82.7812 38.2227 83.1263 38.2227 83.8164C38.2227 84.1549 38.3789 84.4414 38.6914 84.6758C39.0104 84.9102 39.7005 85.2324 40.7617 85.6426C41.6536 85.9876 42.3014 86.3034 42.7051 86.5898C43.1087 86.8763 43.4082 87.2083 43.6035 87.5859C43.7988 87.957 43.8965 88.403 43.8965 88.9238ZM55.9668 86.5801C55.9668 88.3444 55.5143 89.7214 54.6094 90.7109C53.7044 91.7005 52.4447 92.1953 50.8301 92.1953C49.821 92.1953 48.929 91.9674 48.1543 91.5117C47.3796 91.056 46.7839 90.4017 46.3672 89.5488C45.9505 88.696 45.7422 87.7064 45.7422 86.5801C45.7422 84.8288 46.1914 83.4616 47.0898 82.4785C47.9883 81.4954 49.2546 81.0039 50.8887 81.0039C52.4512 81.0039 53.6882 81.5085 54.5996 82.5176C55.5111 83.5202 55.9668 84.8743 55.9668 86.5801ZM48.1055 86.5801C48.1055 89.0736 49.0267 90.3203 50.8691 90.3203C52.6921 90.3203 53.6035 89.0736 53.6035 86.5801C53.6035 84.1126 52.6855 82.8789 50.8496 82.8789C49.8861 82.8789 49.1862 83.1979 48.75 83.8359C48.3203 84.474 48.1055 85.3887 48.1055 86.5801ZM62.168 81.1992H64.668L66.8652 87.3223C67.1973 88.1947 67.4186 89.015 67.5293 89.7832H67.6074C67.666 89.4251 67.7734 88.9922 67.9297 88.4844C68.0859 87.9701 68.9128 85.5417 70.4102 81.1992H72.8906L68.2715 93.4355C67.4316 95.6816 66.0319 96.8047 64.0723 96.8047C63.5645 96.8047 63.0697 96.7493 62.5879 96.6387V94.8223C62.9329 94.9004 63.3268 94.9395 63.7695 94.9395C64.8763 94.9395 65.6543 94.2982 66.1035 93.0156L66.5039 92L62.168 81.1992ZM84.1113 86.5801C84.1113 88.3444 83.6589 89.7214 82.7539 90.7109C81.849 91.7005 80.5892 92.1953 78.9746 92.1953C77.9655 92.1953 77.0736 91.9674 76.2988 91.5117C75.5241 91.056 74.9284 90.4017 74.5117 89.5488C74.0951 88.696 73.8867 87.7064 73.8867 86.5801C73.8867 84.8288 74.3359 83.4616 75.2344 82.4785C76.1328 81.4954 77.3991 81.0039 79.0332 81.0039C80.5957 81.0039 81.8327 81.5085 82.7441 82.5176C83.6556 83.5202 84.1113 84.8743 84.1113 86.5801ZM76.25 86.5801C76.25 89.0736 77.1712 90.3203 79.0137 90.3203C80.8366 90.3203 81.748 89.0736 81.748 86.5801C81.748 84.1126 80.8301 82.8789 78.9941 82.8789C78.0306 82.8789 77.3307 83.1979 76.8945 83.8359C76.4648 84.474 76.25 85.3887 76.25 86.5801ZM94.375 92L94.0527 90.584H93.9355C93.6165 91.0853 93.1608 91.4792 92.5684 91.7656C91.9824 92.0521 91.3118 92.1953 90.5566 92.1953C89.248 92.1953 88.2715 91.8698 87.627 91.2188C86.9824 90.5677 86.6602 89.5814 86.6602 88.2598V81.1992H88.9746V87.8594C88.9746 88.6862 89.1439 89.3079 89.4824 89.7246C89.821 90.1348 90.3516 90.3398 91.0742 90.3398C92.0378 90.3398 92.7441 90.0534 93.1934 89.4805C93.6491 88.901 93.877 87.9342 93.877 86.5801V81.1992H96.1816V92H94.375ZM101.289 77.7227L101.436 77.9375C101.09 79.2982 100.518 80.8574 99.7168 82.6152H98.0566C98.5059 80.7337 98.8314 79.1029 99.0332 77.7227H101.289ZM108.799 81.0039C109.261 81.0039 109.642 81.0365 109.941 81.1016L109.717 83.2402C109.391 83.1621 109.053 83.123 108.701 83.123C107.783 83.123 107.038 83.4225 106.465 84.0215C105.898 84.6204 105.615 85.3984 105.615 86.3555V92H103.32V81.1992H105.117L105.42 83.1035H105.537C105.895 82.459 106.361 81.9479 106.934 81.5703C107.513 81.1927 108.135 81.0039 108.799 81.0039ZM116.67 92.1953C114.99 92.1953 113.675 91.707 112.725 90.7305C111.781 89.7474 111.309 88.3965 111.309 86.6777C111.309 84.9134 111.748 83.5267 112.627 82.5176C113.506 81.5085 114.714 81.0039 116.25 81.0039C117.676 81.0039 118.802 81.4368 119.629 82.3027C120.456 83.1686 120.869 84.36 120.869 85.877V87.1172H113.672C113.704 88.1654 113.988 88.9727 114.521 89.5391C115.055 90.099 115.807 90.3789 116.777 90.3789C117.415 90.3789 118.008 90.3203 118.555 90.2031C119.108 90.0794 119.701 89.8776 120.332 89.5977V91.4629C119.772 91.7298 119.206 91.9186 118.633 92.0293C118.06 92.14 117.406 92.1953 116.67 92.1953ZM116.25 82.7422C115.521 82.7422 114.935 82.9733 114.492 83.4355C114.056 83.8978 113.796 84.5716 113.711 85.457H118.613C118.6 84.5651 118.385 83.8913 117.969 83.4355C117.552 82.9733 116.979 82.7422 116.25 82.7422ZM140.176 92H137.832V85.5645H131.25V92H128.916V77.7227H131.25V83.5625H137.832V77.7227H140.176V92ZM150.449 92L149.99 90.4961H149.912C149.391 91.1536 148.867 91.6029 148.34 91.8438C147.812 92.0781 147.135 92.1953 146.309 92.1953C145.247 92.1953 144.417 91.9089 143.818 91.3359C143.226 90.763 142.93 89.9525 142.93 88.9043C142.93 87.791 143.343 86.9512 144.17 86.3848C144.997 85.8184 146.257 85.5091 147.949 85.457L149.814 85.3984V84.8223C149.814 84.1322 149.652 83.6178 149.326 83.2793C149.007 82.9342 148.509 82.7617 147.832 82.7617C147.279 82.7617 146.748 82.8431 146.24 83.0059C145.732 83.1686 145.244 83.3607 144.775 83.582L144.033 81.9414C144.619 81.6354 145.26 81.4043 145.957 81.248C146.654 81.0853 147.311 81.0039 147.93 81.0039C149.303 81.0039 150.339 81.3034 151.035 81.9023C151.738 82.5013 152.09 83.4421 152.09 84.7246V92H150.449ZM147.031 90.4375C147.865 90.4375 148.532 90.2064 149.033 89.7441C149.541 89.2754 149.795 88.6211 149.795 87.7812V86.8438L148.408 86.9023C147.327 86.9414 146.54 87.1237 146.045 87.4492C145.557 87.7682 145.312 88.2598 145.312 88.9238C145.312 89.4056 145.456 89.7799 145.742 90.0469C146.029 90.3073 146.458 90.4375 147.031 90.4375ZM160.771 81.0039C161.234 81.0039 161.615 81.0365 161.914 81.1016L161.689 83.2402C161.364 83.1621 161.025 83.123 160.674 83.123C159.756 83.123 159.01 83.4225 158.438 84.0215C157.871 84.6204 157.588 85.3984 157.588 86.3555V92H155.293V81.1992H157.09L157.393 83.1035H157.51C157.868 82.459 158.333 81.9479 158.906 81.5703C159.486 81.1927 160.107 81.0039 160.771 81.0039ZM169.404 81.0039C169.867 81.0039 170.247 81.0365 170.547 81.1016L170.322 83.2402C169.997 83.1621 169.658 83.123 169.307 83.123C168.389 83.123 167.643 83.4225 167.07 84.0215C166.504 84.6204 166.221 85.3984 166.221 86.3555V92H163.926V81.1992H165.723L166.025 83.1035H166.143C166.501 82.459 166.966 81.9479 167.539 81.5703C168.118 81.1927 168.74 81.0039 169.404 81.0039ZM170.918 81.1992H173.418L175.615 87.3223C175.947 88.1947 176.169 89.015 176.279 89.7832H176.357C176.416 89.4251 176.523 88.9922 176.68 88.4844C176.836 87.9701 177.663 85.5417 179.16 81.1992H181.641L177.021 93.4355C176.182 95.6816 174.782 96.8047 172.822 96.8047C172.314 96.8047 171.82 96.7493 171.338 96.6387V94.8223C171.683 94.9004 172.077 94.9395 172.52 94.9395C173.626 94.9395 174.404 94.2982 174.854 93.0156L175.254 92L170.918 81.1992ZM190.537 88.9238C190.537 89.9785 190.153 90.7891 189.385 91.3555C188.617 91.9154 187.516 92.1953 186.084 92.1953C184.645 92.1953 183.49 91.9772 182.617 91.541V89.5586C183.887 90.1445 185.068 90.4375 186.162 90.4375C187.575 90.4375 188.281 90.0111 188.281 89.1582C188.281 88.8848 188.203 88.6569 188.047 88.4746C187.891 88.2923 187.633 88.1035 187.275 87.9082C186.917 87.7129 186.419 87.4915 185.781 87.2441C184.538 86.7624 183.695 86.2806 183.252 85.7988C182.816 85.3171 182.598 84.6921 182.598 83.9238C182.598 82.9993 182.969 82.2832 183.711 81.7754C184.46 81.2611 185.475 81.0039 186.758 81.0039C188.027 81.0039 189.229 81.2611 190.361 81.7754L189.619 83.5039C188.454 83.0221 187.474 82.7812 186.68 82.7812C185.469 82.7812 184.863 83.1263 184.863 83.8164C184.863 84.1549 185.02 84.4414 185.332 84.6758C185.651 84.9102 186.341 85.2324 187.402 85.6426C188.294 85.9876 188.942 86.3034 189.346 86.5898C189.749 86.8763 190.049 87.2083 190.244 87.5859C190.439 87.957 190.537 88.403 190.537 88.9238ZM40.9961 119.195C39.362 119.195 38.1185 118.72 37.2656 117.77C36.4193 116.812 35.9961 115.442 35.9961 113.658C35.9961 111.842 36.4388 110.445 37.3242 109.469C38.2161 108.492 39.502 108.004 41.1816 108.004C42.321 108.004 43.3464 108.215 44.2578 108.639L43.5645 110.484C42.5944 110.107 41.7936 109.918 41.1621 109.918C39.2936 109.918 38.3594 111.158 38.3594 113.639C38.3594 114.85 38.5905 115.761 39.0527 116.373C39.5215 116.979 40.2051 117.281 41.1035 117.281C42.1257 117.281 43.0924 117.027 44.0039 116.52V118.521C43.5938 118.762 43.1543 118.935 42.6855 119.039C42.2233 119.143 41.6602 119.195 40.9961 119.195ZM56.123 113.58C56.123 115.344 55.6706 116.721 54.7656 117.711C53.8607 118.701 52.6009 119.195 50.9863 119.195C49.9772 119.195 49.0853 118.967 48.3105 118.512C47.5358 118.056 46.9401 117.402 46.5234 116.549C46.1068 115.696 45.8984 114.706 45.8984 113.58C45.8984 111.829 46.3477 110.462 47.2461 109.479C48.1445 108.495 49.4108 108.004 51.0449 108.004C52.6074 108.004 53.8444 108.508 54.7559 109.518C55.6673 110.52 56.123 111.874 56.123 113.58ZM48.2617 113.58C48.2617 116.074 49.1829 117.32 51.0254 117.32C52.8483 117.32 53.7598 116.074 53.7598 113.58C53.7598 111.113 52.8418 109.879 51.0059 109.879C50.0423 109.879 49.3424 110.198 48.9062 110.836C48.4766 111.474 48.2617 112.389 48.2617 113.58ZM66.3867 119L66.0645 117.584H65.9473C65.6283 118.085 65.1725 118.479 64.5801 118.766C63.9941 119.052 63.3236 119.195 62.5684 119.195C61.2598 119.195 60.2832 118.87 59.6387 118.219C58.9941 117.568 58.6719 116.581 58.6719 115.26V108.199H60.9863V114.859C60.9863 115.686 61.1556 116.308 61.4941 116.725C61.8327 117.135 62.3633 117.34 63.0859 117.34C64.0495 117.34 64.7559 117.053 65.2051 116.48C65.6608 115.901 65.8887 114.934 65.8887 113.58V108.199H68.1934V119H66.3867ZM78.7207 115.924C78.7207 116.979 78.3366 117.789 77.5684 118.355C76.8001 118.915 75.6999 119.195 74.2676 119.195C72.8288 119.195 71.6732 118.977 70.8008 118.541V116.559C72.0703 117.145 73.252 117.438 74.3457 117.438C75.7585 117.438 76.4648 117.011 76.4648 116.158C76.4648 115.885 76.3867 115.657 76.2305 115.475C76.0742 115.292 75.8171 115.104 75.459 114.908C75.1009 114.713 74.6029 114.492 73.9648 114.244C72.7214 113.762 71.8783 113.281 71.4355 112.799C70.9993 112.317 70.7812 111.692 70.7812 110.924C70.7812 109.999 71.1523 109.283 71.8945 108.775C72.6432 108.261 73.6589 108.004 74.9414 108.004C76.2109 108.004 77.4121 108.261 78.5449 108.775L77.8027 110.504C76.6374 110.022 75.6576 109.781 74.8633 109.781C73.6523 109.781 73.0469 110.126 73.0469 110.816C73.0469 111.155 73.2031 111.441 73.5156 111.676C73.8346 111.91 74.5247 112.232 75.5859 112.643C76.4779 112.988 77.1257 113.303 77.5293 113.59C77.9329 113.876 78.2324 114.208 78.4277 114.586C78.623 114.957 78.7207 115.403 78.7207 115.924ZM83.5059 119H81.2109V108.199H83.5059V119ZM81.0742 105.338C81.0742 104.928 81.1849 104.612 81.4062 104.391C81.6341 104.169 81.9564 104.059 82.373 104.059C82.7767 104.059 83.0892 104.169 83.3105 104.391C83.5384 104.612 83.6523 104.928 83.6523 105.338C83.6523 105.729 83.5384 106.038 83.3105 106.266C83.0892 106.487 82.7767 106.598 82.373 106.598C81.9564 106.598 81.6341 106.487 81.4062 106.266C81.1849 106.038 81.0742 105.729 81.0742 105.338ZM96.2988 119H93.9941V112.359C93.9941 111.526 93.8249 110.904 93.4863 110.494C93.1543 110.084 92.6237 109.879 91.8945 109.879C90.9245 109.879 90.2148 110.165 89.7656 110.738C89.3164 111.311 89.0918 112.271 89.0918 113.619V119H86.7969V108.199H88.5938L88.916 109.615H89.0332C89.3587 109.101 89.821 108.704 90.4199 108.424C91.0189 108.144 91.6829 108.004 92.4121 108.004C95.0033 108.004 96.2988 109.322 96.2988 111.959V119ZM100.615 114.664V114.039C100.615 113.323 100.745 112.727 101.006 112.252C101.266 111.777 101.722 111.285 102.373 110.777C103.148 110.165 103.646 109.69 103.867 109.352C104.095 109.013 104.209 108.609 104.209 108.141C104.209 107.594 104.027 107.174 103.662 106.881C103.298 106.588 102.773 106.441 102.09 106.441C101.471 106.441 100.898 106.529 100.371 106.705C99.8438 106.881 99.3294 107.092 98.8281 107.34L98.0078 105.621C99.3294 104.885 100.745 104.518 102.256 104.518C103.532 104.518 104.544 104.83 105.293 105.455C106.042 106.08 106.416 106.943 106.416 108.043C106.416 108.531 106.344 108.967 106.201 109.352C106.058 109.729 105.84 110.09 105.547 110.436C105.26 110.781 104.762 111.23 104.053 111.783C103.447 112.258 103.04 112.652 102.832 112.965C102.63 113.277 102.529 113.697 102.529 114.225V114.664H100.615ZM100.215 117.779C100.215 116.796 100.693 116.305 101.65 116.305C102.119 116.305 102.477 116.435 102.725 116.695C102.972 116.949 103.096 117.311 103.096 117.779C103.096 118.242 102.969 118.609 102.715 118.883C102.467 119.15 102.113 119.283 101.65 119.283C101.188 119.283 100.833 119.153 100.586 118.893C100.339 118.626 100.215 118.255 100.215 117.779Z" fill="white"/>
<path d="M35 97H57" stroke="#A1C764" stroke-width="2"/>
<defs>
<filter id="filter0_d" x="56" y="133.694" width="205" height="105" filterUnits="userSpaceOnUse" color-interpolation-filters="sRGB">
<feFlood flood-opacity="0" result="BackgroundImageFix"/>
<feColorMatrix in="SourceAlpha" type="matrix" values="0 0 0 0 0 0 0 0 0 0 0 0 0 0 0 0 0 0 127 0"/>
<feOffset dy="3"/>
<feGaussianBlur stdDeviation="3.5"/>
<feColorMatrix type="matrix" values="0 0 0 0 0.0410243 0 0 0 0 0.385435 0 0 0 0 0.579167 0 0 0 0.4 0"/>
<feBlend mode="normal" in2="BackgroundImageFix" result="effect1_dropShadow"/>
<feBlend mode="normal" in="SourceGraphic" in2="effect1_dropShadow" result="shape"/>
</filter>
</defs>
</svg>
