<svg xmlns="http://www.w3.org/2000/svg" width="60" height="60" viewBox="0 0 60 60">
  <g id="Multiple_Uploading_Options" data-name="Multiple Uploading Options" transform="translate(-438.83 -393.83)">
    <g id="Ellipse_6" data-name="Ellipse 6" transform="translate(438.83 393.83)" fill="#fff" stroke="#f3f5f8" stroke-width="1">
      <circle cx="30" cy="30" r="30" stroke="none"/>
      <circle cx="30" cy="30" r="29.5" fill="none"/>
    </g>
    <g id="Blue" transform="translate(455.216 408.503)">
      <path id="Path_37" data-name="Path 37" d="M143.762,31.288l2.746-2.746V43.068a1.331,1.331,0,0,0,2.661,0V28.541l2.746,2.746a1.33,1.33,0,1,0,1.881-1.881l-5.017-5.017a1.33,1.33,0,0,0-1.882,0l-5.017,5.017a1.33,1.33,0,1,0,1.882,1.881Z" transform="translate(-134.534 -23.556)" fill="#206df3"/>
      <path id="Path_38" data-name="Path 38" d="M48.391,232a1.33,1.33,0,0,0-1.33,1.33v10.2h-20.4v-10.2a1.331,1.331,0,1,0-2.661,0v10.643a2.217,2.217,0,0,0,2.217,2.217H47.5a2.217,2.217,0,0,0,2.217-2.217V233.33A1.33,1.33,0,0,0,48.391,232Z" transform="translate(-23.557 -220.026)" fill="#6498f6"/>
      <g id="Group_136" data-name="Group 136">
        <path id="Path_39" data-name="Path 39" d="M140.281,37.285a1.776,1.776,0,0,1-1.774-1.774V22.055l-1.989,1.989a1.774,1.774,0,1,1-2.509-2.509l5.017-5.017a1.776,1.776,0,0,1,2.509,0l5.017,5.017a1.774,1.774,0,1,1-2.509,2.509l-1.989-1.989V35.511A1.776,1.776,0,0,1,140.281,37.285Zm-1.33-16.744a.443.443,0,0,1,.443.443V35.511a.887.887,0,0,0,1.774,0V20.984a.443.443,0,0,1,.757-.314l2.746,2.746a.887.887,0,0,0,1.254-1.254l-5.017-5.017a.888.888,0,0,0-1.254,0l-5.017,5.017a.887.887,0,0,0,1.254,1.254l2.746-2.746a.444.444,0,0,1,.314-.129Z" transform="translate(-126.977 -15.999)" fill="#0444b7"/>
        <path id="Path_40" data-name="Path 40" d="M39.947,239.078H18.661A2.664,2.664,0,0,1,16,236.417V225.774a1.774,1.774,0,1,1,3.548,0v9.756H39.06v-9.756a1.774,1.774,0,1,1,3.548,0v10.643a2.664,2.664,0,0,1-2.661,2.661ZM17.774,224.887a.888.888,0,0,0-.887.887v10.643a1.776,1.776,0,0,0,1.774,1.774H39.947a1.776,1.776,0,0,0,1.774-1.774V225.774a.887.887,0,0,0-1.774,0v10.2a.443.443,0,0,1-.443.443H19.1a.443.443,0,0,1-.443-.443v-10.2a.888.888,0,0,0-.883-.887Z" transform="translate(-16 -212.47)" fill="#0444b7"/>
      </g>
    </g>
  </g>
</svg>
