<svg xmlns="http://www.w3.org/2000/svg" width="59.5" height="59.5" viewBox="0 0 59.5 59.5">
  <g id="Privacy_Guaranteed" data-name="Privacy Guaranteed" transform="translate(-438 -393)">
    <g id="Ellipse_6" data-name="Ellipse 6" transform="translate(438 393)" fill="#fff" stroke="#f3f5f8" stroke-width="1">
      <circle cx="29.75" cy="29.75" r="29.75" stroke="none"/>
      <circle cx="29.75" cy="29.75" r="29.25" fill="none"/>
    </g>
    <g id="Group_152" data-name="Group 152" transform="translate(454.782 409.256)">
      <path id="Path_50" data-name="Path 50" d="M78.475,68.376a22.808,22.808,0,0,1-8.683-7.886A19.76,19.76,0,0,1,66.664,49.9V47a1.023,1.023,0,0,1,.644-.952,8.976,8.976,0,0,0,4.827-4.436,1.02,1.02,0,0,1,.923-.578H84.967a1.02,1.02,0,0,1,.923.578,8.976,8.976,0,0,0,4.827,4.436A1.023,1.023,0,0,1,91.36,47v2.9a19.759,19.759,0,0,1-3.128,10.592,22.809,22.809,0,0,1-8.683,7.886l-.06.032a1.026,1.026,0,0,1-.954,0Z" transform="translate(-66.189 -40.561)" fill="#bdf1d9"/>
      <path id="Path_51" data-name="Path 51" d="M267.7,46.05l-.05-.02L267.567,46l-.142-.06-.081-.035-.15-.068-.068-.031-.213-.1-.016-.008-.194-.1-.068-.037-.139-.078-.076-.044-.13-.077-.075-.046-.134-.085-.065-.042-.181-.121-.013-.009q-.1-.067-.19-.135l-.058-.043-.129-.1-.068-.053-.117-.093-.067-.055-.118-.1-.06-.052-.143-.128-.03-.027q-.085-.078-.168-.158l-.047-.047-.117-.116-.059-.06-.1-.108-.059-.064-.1-.112-.054-.061c-.039-.045-.077-.09-.115-.136l-.033-.04q-.073-.089-.143-.179l-.036-.047q-.052-.068-.1-.137l-.048-.066-.086-.122-.049-.071-.083-.124-.045-.069c-.03-.047-.06-.094-.089-.142l-.033-.052q-.059-.1-.116-.2l-.023-.042c-.029-.053-.059-.1-.087-.159l-.037-.071-.069-.134-.038-.077-.029-.059a1.02,1.02,0,0,0-.923-.578H256v27.49a1.025,1.025,0,0,0,.477-.118l.06-.032a22.808,22.808,0,0,0,8.683-7.886A19.759,19.759,0,0,0,268.349,49.9V47A1.022,1.022,0,0,0,267.7,46.05Z" transform="translate(-243.178 -40.56)" fill="#76deca"/>
      <path id="Path_52" data-name="Path 52" d="M267.7,46.05l-.05-.02L267.567,46l-.142-.06-.081-.035-.15-.068-.068-.031-.213-.1-.016-.008-.194-.1-.068-.037-.139-.078-.076-.044-.13-.077-.075-.046-.134-.085-.065-.042-.181-.121-.013-.009q-.1-.067-.19-.135l-.058-.043-.129-.1-.068-.053-.117-.093-.067-.055-.118-.1-.06-.052-.143-.128-.03-.027q-.085-.078-.168-.158l-.047-.047-.117-.116-.059-.06-.1-.108-.059-.064-.1-.112-.054-.061c-.039-.045-.077-.09-.115-.136l-.033-.04q-.073-.089-.143-.179l-.036-.047q-.052-.068-.1-.137l-.048-.066-.086-.122-.049-.071-.083-.124-.045-.069-.089-.142-.033-.052q-.059-.1-.116-.2l-.023-.042c-.029-.053-.059-.1-.087-.159l-.037-.071-.069-.134-.038-.077-.029-.059a1.02,1.02,0,0,0-.923-.578h-1.648a9.144,9.144,0,0,1,.724,1.093c.011.019.019.039.029.059l.038.077.069.134.037.071.087.159.023.042q.057.1.116.2l.032.052c.029.048.059.1.089.142l.045.069.083.124.049.071.086.122.048.066c.034.046.068.091.1.137L262,43.7q.07.09.143.179l.033.04.115.136.054.061.1.112.059.064.1.108.059.06.117.116.047.047q.083.08.168.158l.03.027.143.128.06.052.118.1.067.055.117.093.068.053.129.1.058.043q.094.069.19.135l.013.009q.09.062.181.121l.065.042.134.085.075.046.13.077.076.044.139.078.068.037.194.1.016.008q.106.053.213.1l.068.031.15.068.081.035.142.06.083.034.05.02a1.023,1.023,0,0,1,.644.952v2.9A19.76,19.76,0,0,1,263.375,61,24.336,24.336,0,0,1,256,68.5v.027a1.025,1.025,0,0,0,.477-.118l.06-.032a22.808,22.808,0,0,0,8.683-7.886A19.759,19.759,0,0,0,268.349,49.9V47A1.022,1.022,0,0,0,267.7,46.05Z" transform="translate(-243.178 -40.56)" fill="#51c7c1"/>
      <path id="Path_53" data-name="Path 53" d="M71.444,61.985h0l.06.032a1.5,1.5,0,0,0,1.4,0l.06-.032a23.284,23.284,0,0,0,8.863-8.051,20.234,20.234,0,0,0,3.2-10.847v-2.9a1.489,1.489,0,0,0-.945-1.394,8.45,8.45,0,0,1-4.572-4.2,1.5,1.5,0,0,0-1.352-.85H66.248a1.5,1.5,0,0,0-1.352.85,8.45,8.45,0,0,1-4.572,4.2,1.489,1.489,0,0,0-.945,1.394v2.9a20.233,20.233,0,0,0,3.2,10.847A23.283,23.283,0,0,0,71.444,61.985Zm-11.115-18.9v-2.9a.544.544,0,0,1,.344-.51A9.4,9.4,0,0,0,65.754,35a.547.547,0,0,1,.494-.307H78.157a.547.547,0,0,1,.494.307,9.4,9.4,0,0,0,5.081,4.674.544.544,0,0,1,.344.51v2.9a19.285,19.285,0,0,1-3.054,10.337,22.333,22.333,0,0,1-8.5,7.72l-.06.032a.55.55,0,0,1-.512,0l-.06-.032a22.333,22.333,0,0,1-8.5-7.72,19.285,19.285,0,0,1-3.061-10.335Z" transform="translate(-59.379 -33.749)" stroke="#000" stroke-width="0.2"/>
      <path id="Path_54" data-name="Path 54" d="M168.949,163.435l5.606-5.606a1.3,1.3,0,0,1,1.845,1.845l-6.529,6.529a1.3,1.3,0,0,1-1.845,0l-3.645-3.645a1.3,1.3,0,1,1,1.845-1.845Z" transform="translate(-157.177 -149.38)"/>
    </g>
  </g>
</svg>
