<svg width="262" height="258" viewBox="0 0 262 258" fill="none" xmlns="http://www.w3.org/2000/svg">
<path opacity="0.5" d="M77.9145 252.992L237.479 210.376C251.172 206.721 258.493 191.475 253.033 178.003L189.351 20.9318C185.449 11.3085 174.607 6.83991 165.382 11.0513L32.5108 71.7228C24.6845 75.2964 20.454 84.0777 22.415 92.6786L55.7902 239.21C58.0995 249.367 68.1178 255.605 77.9145 252.992Z" fill="#E1F6FF"/>
<rect y="53.0001" width="197" height="98" rx="11" fill="#F29059"/>
<g filter="url(#filter0_d)">
<rect x="31" y="135" width="185" height="91" rx="11" fill="white"/>
</g>
<rect x="50.5" y="173.5" width="100" height="33" rx="4.5" fill="white" stroke="#F29059"/>
<path d="M52.9531 155.654H54.0879C54.849 155.654 55.4004 155.513 55.7422 155.231C56.084 154.948 56.2549 154.529 56.2549 153.973C56.2549 153.408 56.0703 153.002 55.7012 152.756C55.332 152.51 54.776 152.387 54.0332 152.387H52.9531V155.654ZM52.9531 157.008V161H51.3193V151.006H54.1426C55.4323 151.006 56.387 151.247 57.0068 151.731C57.6266 152.214 57.9365 152.943 57.9365 153.918C57.9365 155.162 57.2894 156.049 55.9951 156.577L58.8184 161H56.959L54.5664 157.008H52.9531ZM63.4053 161.137C62.2295 161.137 61.3089 160.795 60.6436 160.111C59.9827 159.423 59.6523 158.478 59.6523 157.274C59.6523 156.039 59.96 155.069 60.5752 154.362C61.1904 153.656 62.0358 153.303 63.1113 153.303C64.1094 153.303 64.8978 153.606 65.4766 154.212C66.0553 154.818 66.3447 155.652 66.3447 156.714V157.582H61.3066C61.3294 158.316 61.5277 158.881 61.9014 159.277C62.2751 159.669 62.8014 159.865 63.4805 159.865C63.9271 159.865 64.3418 159.824 64.7246 159.742C65.112 159.656 65.5267 159.514 65.9688 159.318V160.624C65.5768 160.811 65.1803 160.943 64.7793 161.021C64.3783 161.098 63.9202 161.137 63.4053 161.137ZM63.1113 154.52C62.6009 154.52 62.1908 154.681 61.8809 155.005C61.5755 155.329 61.3932 155.8 61.334 156.42H64.7656C64.7565 155.796 64.6061 155.324 64.3145 155.005C64.0228 154.681 63.6217 154.52 63.1113 154.52ZM72.0049 161.137C71.0479 161.137 70.305 160.793 69.7764 160.105H69.6807C69.7445 160.743 69.7764 161.13 69.7764 161.267V164.363H68.1699V153.44H69.4688C69.5052 153.581 69.5804 153.918 69.6943 154.451H69.7764C70.2777 153.686 71.0296 153.303 72.0322 153.303C72.9756 153.303 73.7093 153.645 74.2334 154.328C74.762 155.012 75.0264 155.971 75.0264 157.206C75.0264 158.441 74.7575 159.405 74.2197 160.098C73.6865 160.79 72.9482 161.137 72.0049 161.137ZM71.6152 154.615C70.9772 154.615 70.5101 154.802 70.2139 155.176C69.9222 155.55 69.7764 156.147 69.7764 156.967V157.206C69.7764 158.127 69.9222 158.794 70.2139 159.209C70.5055 159.619 70.9818 159.824 71.6426 159.824C72.1986 159.824 72.627 159.596 72.9277 159.141C73.2285 158.685 73.3789 158.036 73.3789 157.192C73.3789 156.345 73.2285 155.704 72.9277 155.272C72.6315 154.834 72.194 154.615 71.6152 154.615ZM78.499 161H76.8926V150.363H78.499V161ZM85.5332 161L85.2119 159.947H85.1572C84.7926 160.408 84.4258 160.722 84.0566 160.891C83.6875 161.055 83.2135 161.137 82.6348 161.137C81.8919 161.137 81.3109 160.936 80.8916 160.535C80.4769 160.134 80.2695 159.567 80.2695 158.833C80.2695 158.054 80.5589 157.466 81.1377 157.069C81.7165 156.673 82.5983 156.456 83.7832 156.42L85.0889 156.379V155.976C85.0889 155.493 84.9749 155.133 84.7471 154.896C84.5238 154.654 84.1751 154.533 83.7012 154.533C83.3138 154.533 82.9424 154.59 82.5869 154.704C82.2314 154.818 81.8896 154.953 81.5615 155.107L81.042 153.959C81.4521 153.745 81.901 153.583 82.3887 153.474C82.8763 153.36 83.3366 153.303 83.7695 153.303C84.7311 153.303 85.4557 153.512 85.9434 153.932C86.4355 154.351 86.6816 155.01 86.6816 155.907V161H85.5332ZM83.1406 159.906C83.724 159.906 84.1911 159.745 84.542 159.421C84.8975 159.093 85.0752 158.635 85.0752 158.047V157.391L84.1045 157.432C83.348 157.459 82.7965 157.587 82.4502 157.815C82.1084 158.038 81.9375 158.382 81.9375 158.847C81.9375 159.184 82.0378 159.446 82.2383 159.633C82.4388 159.815 82.7396 159.906 83.1406 159.906ZM91.9727 161.137C90.8288 161.137 89.9583 160.804 89.3613 160.139C88.7689 159.469 88.4727 158.51 88.4727 157.261C88.4727 155.989 88.7826 155.012 89.4023 154.328C90.0267 153.645 90.9268 153.303 92.1025 153.303C92.9001 153.303 93.6178 153.451 94.2559 153.747L93.7705 155.039C93.0915 154.775 92.5309 154.643 92.0889 154.643C90.7809 154.643 90.127 155.511 90.127 157.247C90.127 158.095 90.2887 158.733 90.6123 159.161C90.9404 159.585 91.4189 159.797 92.0479 159.797C92.7633 159.797 93.4401 159.619 94.0781 159.264V160.665C93.791 160.834 93.4834 160.954 93.1553 161.027C92.8317 161.1 92.4375 161.137 91.9727 161.137ZM99.1572 161.137C97.9814 161.137 97.0609 160.795 96.3955 160.111C95.7347 159.423 95.4043 158.478 95.4043 157.274C95.4043 156.039 95.7119 155.069 96.3271 154.362C96.9424 153.656 97.7878 153.303 98.8633 153.303C99.8613 153.303 100.65 153.606 101.229 154.212C101.807 154.818 102.097 155.652 102.097 156.714V157.582H97.0586C97.0814 158.316 97.2796 158.881 97.6533 159.277C98.027 159.669 98.5534 159.865 99.2324 159.865C99.679 159.865 100.094 159.824 100.477 159.742C100.864 159.656 101.279 159.514 101.721 159.318V160.624C101.329 160.811 100.932 160.943 100.531 161.021C100.13 161.098 99.6722 161.137 99.1572 161.137ZM98.8633 154.52C98.3529 154.52 97.9427 154.681 97.6328 155.005C97.3275 155.329 97.1452 155.8 97.0859 156.42H100.518C100.508 155.796 100.358 155.324 100.066 155.005C99.7747 154.681 99.3737 154.52 98.8633 154.52ZM113.759 161L112.781 157.473C112.663 157.099 112.449 156.231 112.139 154.868H112.077C111.813 156.099 111.603 156.971 111.448 157.486L110.443 161H108.666L106.547 153.44H108.188L109.151 157.165C109.37 158.086 109.525 158.874 109.616 159.53H109.657C109.703 159.198 109.771 158.817 109.862 158.389C109.958 157.956 110.04 157.632 110.108 157.418L111.257 153.44H113.021L114.135 157.418C114.203 157.641 114.287 157.983 114.388 158.443C114.493 158.904 114.554 159.261 114.572 159.517H114.627C114.695 158.956 114.855 158.172 115.105 157.165L116.083 153.44H117.696L115.563 161H113.759ZM120.608 161H119.002V153.44H120.608V161ZM118.906 151.437C118.906 151.149 118.984 150.928 119.139 150.773C119.298 150.619 119.524 150.541 119.815 150.541C120.098 150.541 120.317 150.619 120.472 150.773C120.631 150.928 120.711 151.149 120.711 151.437C120.711 151.71 120.631 151.926 120.472 152.086C120.317 152.241 120.098 152.318 119.815 152.318C119.524 152.318 119.298 152.241 119.139 152.086C118.984 151.926 118.906 151.71 118.906 151.437ZM125.729 159.838C126.12 159.838 126.512 159.776 126.904 159.653V160.863C126.727 160.941 126.496 161.005 126.214 161.055C125.936 161.109 125.646 161.137 125.346 161.137C123.824 161.137 123.062 160.335 123.062 158.731V154.656H122.03V153.945L123.138 153.357L123.685 151.758H124.676V153.44H126.829V154.656H124.676V158.703C124.676 159.091 124.771 159.378 124.963 159.565C125.159 159.747 125.414 159.838 125.729 159.838ZM135.073 161H133.46V156.352C133.46 155.768 133.341 155.333 133.104 155.046C132.872 154.759 132.501 154.615 131.99 154.615C131.316 154.615 130.819 154.818 130.5 155.224C130.186 155.625 130.028 156.299 130.028 157.247V161H128.422V150.363H130.028V153.064C130.028 153.496 130.001 153.959 129.946 154.451H130.049C130.268 154.087 130.571 153.804 130.958 153.604C131.35 153.403 131.806 153.303 132.325 153.303C134.157 153.303 135.073 154.226 135.073 156.071V161Z" fill="#999999"/>
<path d="M79.5332 197H77.1895V190.565H70.6074V197H68.2734V182.723H70.6074V188.563H77.1895V182.723H79.5332V197ZM89.8066 197L89.3477 195.496H89.2695C88.7487 196.154 88.2246 196.603 87.6973 196.844C87.1699 197.078 86.4928 197.195 85.666 197.195C84.6048 197.195 83.7747 196.909 83.1758 196.336C82.5833 195.763 82.2871 194.953 82.2871 193.904C82.2871 192.791 82.7005 191.951 83.5273 191.385C84.3542 190.818 85.6139 190.509 87.3066 190.457L89.1719 190.398V189.822C89.1719 189.132 89.0091 188.618 88.6836 188.279C88.3646 187.934 87.8665 187.762 87.1895 187.762C86.6361 187.762 86.1055 187.843 85.5977 188.006C85.0898 188.169 84.6016 188.361 84.1328 188.582L83.3906 186.941C83.9766 186.635 84.6178 186.404 85.3145 186.248C86.0111 186.085 86.6686 186.004 87.2871 186.004C88.6608 186.004 89.696 186.303 90.3926 186.902C91.0957 187.501 91.4473 188.442 91.4473 189.725V197H89.8066ZM86.3887 195.438C87.222 195.438 87.8893 195.206 88.3906 194.744C88.8984 194.275 89.1523 193.621 89.1523 192.781V191.844L87.7656 191.902C86.6849 191.941 85.8971 192.124 85.4023 192.449C84.9141 192.768 84.6699 193.26 84.6699 193.924C84.6699 194.406 84.8132 194.78 85.0996 195.047C85.3861 195.307 85.8158 195.438 86.3887 195.438ZM100.129 186.004C100.591 186.004 100.972 186.037 101.271 186.102L101.047 188.24C100.721 188.162 100.383 188.123 100.031 188.123C99.1133 188.123 98.3678 188.423 97.7949 189.022C97.2285 189.621 96.9453 190.398 96.9453 191.356V197H94.6504V186.199H96.4473L96.75 188.104H96.8672C97.2253 187.459 97.6908 186.948 98.2637 186.57C98.8431 186.193 99.4648 186.004 100.129 186.004ZM108.762 186.004C109.224 186.004 109.605 186.037 109.904 186.102L109.68 188.24C109.354 188.162 109.016 188.123 108.664 188.123C107.746 188.123 107.001 188.423 106.428 189.022C105.861 189.621 105.578 190.398 105.578 191.356V197H103.283V186.199H105.08L105.383 188.104H105.5C105.858 187.459 106.324 186.948 106.896 186.57C107.476 186.193 108.098 186.004 108.762 186.004ZM110.275 186.199H112.775L114.973 192.322C115.305 193.195 115.526 194.015 115.637 194.783H115.715C115.773 194.425 115.881 193.992 116.037 193.484C116.193 192.97 117.02 190.542 118.518 186.199H120.998L116.379 198.436C115.539 200.682 114.139 201.805 112.18 201.805C111.672 201.805 111.177 201.749 110.695 201.639V199.822C111.04 199.9 111.434 199.94 111.877 199.94C112.984 199.94 113.762 199.298 114.211 198.016L114.611 197L110.275 186.199ZM124.475 182.723L124.621 182.938C124.276 184.298 123.703 185.857 122.902 187.615H121.242C121.691 185.734 122.017 184.103 122.219 182.723H124.475ZM133.762 193.924C133.762 194.979 133.378 195.789 132.609 196.356C131.841 196.915 130.741 197.195 129.309 197.195C127.87 197.195 126.714 196.977 125.842 196.541V194.559C127.111 195.145 128.293 195.438 129.387 195.438C130.799 195.438 131.506 195.011 131.506 194.158C131.506 193.885 131.428 193.657 131.271 193.475C131.115 193.292 130.858 193.104 130.5 192.908C130.142 192.713 129.644 192.492 129.006 192.244C127.762 191.762 126.919 191.281 126.477 190.799C126.04 190.317 125.822 189.692 125.822 188.924C125.822 187.999 126.193 187.283 126.936 186.775C127.684 186.261 128.7 186.004 129.982 186.004C131.252 186.004 132.453 186.261 133.586 186.775L132.844 188.504C131.678 188.022 130.699 187.781 129.904 187.781C128.693 187.781 128.088 188.126 128.088 188.816C128.088 189.155 128.244 189.441 128.557 189.676C128.876 189.91 129.566 190.232 130.627 190.643C131.519 190.988 132.167 191.303 132.57 191.59C132.974 191.876 133.273 192.208 133.469 192.586C133.664 192.957 133.762 193.403 133.762 193.924Z" fill="#F29059"/>
<path d="M114 93.0001H177.5" stroke="#387AC8" stroke-width="2"/>
<path d="M30.1172 84.1231C30.1172 85.3926 29.6582 86.3887 28.7402 87.1114C27.8223 87.834 26.556 88.1954 24.9414 88.1954C23.3268 88.1954 22.0052 87.9447 20.9766 87.4434V85.2364C21.6276 85.5424 22.3177 85.7833 23.0469 85.959C23.7826 86.1348 24.4661 86.2227 25.0977 86.2227C26.0221 86.2227 26.7025 86.0469 27.1387 85.6954C27.5814 85.3438 27.8027 84.8718 27.8027 84.2794C27.8027 83.7455 27.6009 83.293 27.1973 82.9219C26.7936 82.5508 25.9603 82.1114 24.6973 81.6036C23.3952 81.0762 22.4772 80.474 21.9434 79.7969C21.4095 79.1199 21.1426 78.3061 21.1426 77.3555C21.1426 76.1641 21.5658 75.2266 22.4121 74.543C23.2585 73.8594 24.3945 73.5176 25.8203 73.5176C27.1875 73.5176 28.5482 73.8171 29.9023 74.4161L29.1602 76.3204C27.8906 75.7865 26.7578 75.5196 25.7617 75.5196C25.0065 75.5196 24.4336 75.6856 24.043 76.0176C23.6523 76.3432 23.457 76.7761 23.457 77.3165C23.457 77.6876 23.5352 78.0066 23.6914 78.2735C23.8477 78.5339 24.1048 78.7813 24.4629 79.0157C24.821 79.2501 25.4655 79.5593 26.3965 79.9434C27.4447 80.3796 28.2129 80.7865 28.7012 81.1641C29.1895 81.5417 29.5475 81.9682 29.7754 82.4434C30.0033 82.9187 30.1172 83.4786 30.1172 84.1231ZM42.2168 82.5801C42.2168 84.3445 41.7643 85.7214 40.8594 86.711C39.9544 87.7006 38.6947 88.1954 37.0801 88.1954C36.071 88.1954 35.179 87.9675 34.4043 87.5118C33.6296 87.0561 33.0339 86.4018 32.6172 85.5489C32.2005 84.696 31.9922 83.7064 31.9922 82.5801C31.9922 80.8288 32.4414 79.4616 33.3398 78.4786C34.2383 77.4955 35.5046 77.004 37.1387 77.004C38.7012 77.004 39.9382 77.5085 40.8496 78.5176C41.7611 79.5202 42.2168 80.8744 42.2168 82.5801ZM34.3555 82.5801C34.3555 85.0736 35.2767 86.3204 37.1191 86.3204C38.9421 86.3204 39.8535 85.0736 39.8535 82.5801C39.8535 80.1127 38.9355 78.879 37.0996 78.879C36.1361 78.879 35.4362 79.198 35 79.836C34.5703 80.474 34.3555 81.3887 34.3555 82.5801ZM48.418 77.1993H50.918L53.1152 83.3223C53.4473 84.1947 53.6686 85.015 53.7793 85.7833H53.8574C53.916 85.4252 54.0234 84.9922 54.1797 84.4844C54.3359 83.9701 55.1628 81.5417 56.6602 77.1993H59.1406L54.5215 89.4356C53.6816 91.6817 52.2819 92.8047 50.3223 92.8047C49.8145 92.8047 49.3197 92.7494 48.8379 92.6387V90.8223C49.1829 90.9005 49.5768 90.9395 50.0195 90.9395C51.1263 90.9395 51.9043 90.2982 52.3535 89.0157L52.7539 88.0001L48.418 77.1993ZM70.3613 82.5801C70.3613 84.3445 69.9089 85.7214 69.0039 86.711C68.099 87.7006 66.8392 88.1954 65.2246 88.1954C64.2155 88.1954 63.3236 87.9675 62.5488 87.5118C61.7741 87.0561 61.1784 86.4018 60.7617 85.5489C60.3451 84.696 60.1367 83.7064 60.1367 82.5801C60.1367 80.8288 60.5859 79.4616 61.4844 78.4786C62.3828 77.4955 63.6491 77.004 65.2832 77.004C66.8457 77.004 68.0827 77.5085 68.9941 78.5176C69.9056 79.5202 70.3613 80.8744 70.3613 82.5801ZM62.5 82.5801C62.5 85.0736 63.4212 86.3204 65.2637 86.3204C67.0866 86.3204 67.998 85.0736 67.998 82.5801C67.998 80.1127 67.0801 78.879 65.2441 78.879C64.2806 78.879 63.5807 79.198 63.1445 79.836C62.7148 80.474 62.5 81.3887 62.5 82.5801ZM80.625 88.0001L80.3027 86.584H80.1855C79.8665 87.0853 79.4108 87.4792 78.8184 87.7657C78.2324 88.0521 77.5618 88.1954 76.8066 88.1954C75.498 88.1954 74.5215 87.8699 73.877 87.2188C73.2324 86.5678 72.9102 85.5814 72.9102 84.2598V77.1993H75.2246V83.8594C75.2246 84.6863 75.3939 85.308 75.7324 85.7247C76.071 86.1348 76.6016 86.3399 77.3242 86.3399C78.2878 86.3399 78.9941 86.0534 79.4434 85.4805C79.8991 84.9011 80.127 83.9343 80.127 82.5801V77.1993H82.4316V88.0001H80.625ZM87.5391 73.7227L87.6855 73.9376C87.3405 75.2982 86.7676 76.8575 85.9668 78.6153H84.3066C84.7559 76.7338 85.0814 75.1029 85.2832 73.7227H87.5391ZM95.0488 77.004C95.5111 77.004 95.8919 77.0365 96.1914 77.1016L95.9668 79.2403C95.6413 79.1622 95.3027 79.1231 94.9512 79.1231C94.0332 79.1231 93.2878 79.4226 92.7148 80.0215C92.1484 80.6205 91.8652 81.3985 91.8652 82.3555V88.0001H89.5703V77.1993H91.3672L91.6699 79.1036H91.7871C92.1452 78.459 92.6107 77.948 93.1836 77.5704C93.763 77.1928 94.3848 77.004 95.0488 77.004ZM102.92 88.1954C101.24 88.1954 99.9251 87.7071 98.9746 86.7305C98.0306 85.7475 97.5586 84.3965 97.5586 82.6778C97.5586 80.9135 97.998 79.5268 98.877 78.5176C99.7559 77.5085 100.964 77.004 102.5 77.004C103.926 77.004 105.052 77.4369 105.879 78.3028C106.706 79.1687 107.119 80.3601 107.119 81.877V83.1172H99.9219C99.9544 84.1654 100.238 84.9727 100.771 85.5391C101.305 86.099 102.057 86.379 103.027 86.379C103.665 86.379 104.258 86.3204 104.805 86.2032C105.358 86.0795 105.951 85.8777 106.582 85.5977V87.463C106.022 87.7299 105.456 87.9187 104.883 88.0294C104.31 88.14 103.656 88.1954 102.92 88.1954ZM102.5 78.7422C101.771 78.7422 101.185 78.9734 100.742 79.4356C100.306 79.8978 100.046 80.5717 99.9609 81.4571H104.863C104.85 80.5652 104.635 79.8913 104.219 79.4356C103.802 78.9734 103.229 78.7422 102.5 78.7422ZM126.426 88.0001H124.082V81.5645H117.5V88.0001H115.166V73.7227H117.5V79.5626H124.082V73.7227H126.426V88.0001ZM136.699 88.0001L136.24 86.4962H136.162C135.641 87.1537 135.117 87.6029 134.59 87.8438C134.062 88.0782 133.385 88.1954 132.559 88.1954C131.497 88.1954 130.667 87.9089 130.068 87.336C129.476 86.7631 129.18 85.9525 129.18 84.9044C129.18 83.7911 129.593 82.9512 130.42 82.3848C131.247 81.8184 132.507 81.5092 134.199 81.4571L136.064 81.3985V80.8223C136.064 80.1322 135.902 79.6179 135.576 79.2794C135.257 78.9343 134.759 78.7618 134.082 78.7618C133.529 78.7618 132.998 78.8432 132.49 79.0059C131.982 79.1687 131.494 79.3607 131.025 79.5821L130.283 77.9415C130.869 77.6355 131.51 77.4044 132.207 77.2481C132.904 77.0853 133.561 77.004 134.18 77.004C135.553 77.004 136.589 77.3034 137.285 77.9024C137.988 78.5014 138.34 79.4421 138.34 80.7247V88.0001H136.699ZM133.281 86.4376C134.115 86.4376 134.782 86.2064 135.283 85.7442C135.791 85.2755 136.045 84.6212 136.045 83.7813V82.8438L134.658 82.9024C133.577 82.9415 132.79 83.1238 132.295 83.4493C131.807 83.7683 131.562 84.2598 131.562 84.9239C131.562 85.4057 131.706 85.78 131.992 86.0469C132.279 86.3074 132.708 86.4376 133.281 86.4376ZM147.021 77.004C147.484 77.004 147.865 77.0365 148.164 77.1016L147.939 79.2403C147.614 79.1622 147.275 79.1231 146.924 79.1231C146.006 79.1231 145.26 79.4226 144.688 80.0215C144.121 80.6205 143.838 81.3985 143.838 82.3555V88.0001H141.543V77.1993H143.34L143.643 79.1036H143.76C144.118 78.459 144.583 77.948 145.156 77.5704C145.736 77.1928 146.357 77.004 147.021 77.004ZM155.654 77.004C156.117 77.004 156.497 77.0365 156.797 77.1016L156.572 79.2403C156.247 79.1622 155.908 79.1231 155.557 79.1231C154.639 79.1231 153.893 79.4226 153.32 80.0215C152.754 80.6205 152.471 81.3985 152.471 82.3555V88.0001H150.176V77.1993H151.973L152.275 79.1036H152.393C152.751 78.459 153.216 77.948 153.789 77.5704C154.368 77.1928 154.99 77.004 155.654 77.004ZM157.168 77.1993H159.668L161.865 83.3223C162.197 84.1947 162.419 85.015 162.529 85.7833H162.607C162.666 85.4252 162.773 84.9922 162.93 84.4844C163.086 83.9701 163.913 81.5417 165.41 77.1993H167.891L163.271 89.4356C162.432 91.6817 161.032 92.8047 159.072 92.8047C158.564 92.8047 158.07 92.7494 157.588 92.6387V90.8223C157.933 90.9005 158.327 90.9395 158.77 90.9395C159.876 90.9395 160.654 90.2982 161.104 89.0157L161.504 88.0001L157.168 77.1993ZM176.787 84.9239C176.787 85.9786 176.403 86.7891 175.635 87.3555C174.867 87.9154 173.766 88.1954 172.334 88.1954C170.895 88.1954 169.74 87.9773 168.867 87.5411V85.5587C170.137 86.1446 171.318 86.4376 172.412 86.4376C173.825 86.4376 174.531 86.0111 174.531 85.1583C174.531 84.8848 174.453 84.657 174.297 84.4747C174.141 84.2924 173.883 84.1036 173.525 83.9083C173.167 83.713 172.669 83.4916 172.031 83.2442C170.788 82.7624 169.945 82.2807 169.502 81.7989C169.066 81.3171 168.848 80.6921 168.848 79.9239C168.848 78.9994 169.219 78.2833 169.961 77.7755C170.71 77.2611 171.725 77.004 173.008 77.004C174.277 77.004 175.479 77.2611 176.611 77.7755L175.869 79.504C174.704 79.0222 173.724 78.7813 172.93 78.7813C171.719 78.7813 171.113 79.1264 171.113 79.8165C171.113 80.155 171.27 80.4415 171.582 80.6758C171.901 80.9102 172.591 81.2325 173.652 81.6426C174.544 81.9877 175.192 82.3034 175.596 82.5899C175.999 82.8764 176.299 83.2084 176.494 83.586C176.689 83.9571 176.787 84.4031 176.787 84.9239ZM25.9961 115.195C24.362 115.195 23.1185 114.72 22.2656 113.77C21.4193 112.813 20.9961 111.442 20.9961 109.658C20.9961 107.842 21.4388 106.445 22.3242 105.469C23.2161 104.492 24.502 104.004 26.1816 104.004C27.321 104.004 28.3464 104.216 29.2578 104.639L28.5645 106.484C27.5944 106.107 26.7936 105.918 26.1621 105.918C24.2936 105.918 23.3594 107.158 23.3594 109.639C23.3594 110.85 23.5905 111.761 24.0527 112.373C24.5215 112.979 25.2051 113.281 26.1035 113.281C27.1257 113.281 28.0924 113.027 29.0039 112.52V114.522C28.5938 114.762 28.1543 114.935 27.6855 115.039C27.2233 115.143 26.6602 115.195 25.9961 115.195ZM41.123 109.58C41.123 111.344 40.6706 112.721 39.7656 113.711C38.8607 114.701 37.6009 115.195 35.9863 115.195C34.9772 115.195 34.0853 114.968 33.3105 114.512C32.5358 114.056 31.9401 113.402 31.5234 112.549C31.1068 111.696 30.8984 110.706 30.8984 109.58C30.8984 107.829 31.3477 106.462 32.2461 105.479C33.1445 104.496 34.4108 104.004 36.0449 104.004C37.6074 104.004 38.8444 104.509 39.7559 105.518C40.6673 106.52 41.123 107.874 41.123 109.58ZM33.2617 109.58C33.2617 112.074 34.1829 113.32 36.0254 113.32C37.8483 113.32 38.7598 112.074 38.7598 109.58C38.7598 107.113 37.8418 105.879 36.0059 105.879C35.0423 105.879 34.3424 106.198 33.9062 106.836C33.4766 107.474 33.2617 108.389 33.2617 109.58ZM51.3867 115L51.0645 113.584H50.9473C50.6283 114.085 50.1725 114.479 49.5801 114.766C48.9941 115.052 48.3236 115.195 47.5684 115.195C46.2598 115.195 45.2832 114.87 44.6387 114.219C43.9941 113.568 43.6719 112.581 43.6719 111.26V104.199H45.9863V110.859C45.9863 111.686 46.1556 112.308 46.4941 112.725C46.8327 113.135 47.3633 113.34 48.0859 113.34C49.0495 113.34 49.7559 113.053 50.2051 112.481C50.6608 111.901 50.8887 110.934 50.8887 109.58V104.199H53.1934V115H51.3867ZM63.7207 111.924C63.7207 112.979 63.3366 113.789 62.5684 114.356C61.8001 114.915 60.6999 115.195 59.2676 115.195C57.8288 115.195 56.6732 114.977 55.8008 114.541V112.559C57.0703 113.145 58.252 113.438 59.3457 113.438C60.7585 113.438 61.4648 113.011 61.4648 112.158C61.4648 111.885 61.3867 111.657 61.2305 111.475C61.0742 111.292 60.8171 111.104 60.459 110.908C60.1009 110.713 59.6029 110.492 58.9648 110.244C57.7214 109.762 56.8783 109.281 56.4355 108.799C55.9993 108.317 55.7812 107.692 55.7812 106.924C55.7812 105.999 56.1523 105.283 56.8945 104.775C57.6432 104.261 58.6589 104.004 59.9414 104.004C61.2109 104.004 62.4121 104.261 63.5449 104.775L62.8027 106.504C61.6374 106.022 60.6576 105.781 59.8633 105.781C58.6523 105.781 58.0469 106.126 58.0469 106.816C58.0469 107.155 58.2031 107.441 58.5156 107.676C58.8346 107.91 59.5247 108.232 60.5859 108.643C61.4779 108.988 62.1257 109.303 62.5293 109.59C62.9329 109.876 63.2324 110.208 63.4277 110.586C63.623 110.957 63.7207 111.403 63.7207 111.924ZM68.5059 115H66.2109V104.199H68.5059V115ZM66.0742 101.338C66.0742 100.928 66.1849 100.612 66.4062 100.391C66.6341 100.169 66.9564 100.059 67.373 100.059C67.7767 100.059 68.0892 100.169 68.3105 100.391C68.5384 100.612 68.6523 100.928 68.6523 101.338C68.6523 101.729 68.5384 102.038 68.3105 102.266C68.0892 102.487 67.7767 102.598 67.373 102.598C66.9564 102.598 66.6341 102.487 66.4062 102.266C66.1849 102.038 66.0742 101.729 66.0742 101.338ZM81.2988 115H78.9941V108.359C78.9941 107.526 78.8249 106.904 78.4863 106.494C78.1543 106.084 77.6237 105.879 76.8945 105.879C75.9245 105.879 75.2148 106.165 74.7656 106.738C74.3164 107.311 74.0918 108.272 74.0918 109.619V115H71.7969V104.199H73.5938L73.916 105.615H74.0332C74.3587 105.101 74.821 104.704 75.4199 104.424C76.0189 104.144 76.6829 104.004 77.4121 104.004C80.0033 104.004 81.2988 105.322 81.2988 107.959V115ZM85.6152 110.664V110.039C85.6152 109.323 85.7454 108.727 86.0059 108.252C86.2663 107.777 86.722 107.285 87.373 106.777C88.1478 106.165 88.6458 105.69 88.8672 105.352C89.0951 105.013 89.209 104.609 89.209 104.141C89.209 103.594 89.0267 103.174 88.6621 102.881C88.2975 102.588 87.7734 102.441 87.0898 102.441C86.4714 102.441 85.8984 102.529 85.3711 102.705C84.8438 102.881 84.3294 103.093 83.8281 103.34L83.0078 101.621C84.3294 100.885 85.7454 100.518 87.2559 100.518C88.5319 100.518 89.5443 100.83 90.293 101.455C91.0417 102.08 91.416 102.943 91.416 104.043C91.416 104.531 91.3444 104.968 91.2012 105.352C91.0579 105.729 90.8398 106.091 90.5469 106.436C90.2604 106.781 89.7624 107.23 89.0527 107.783C88.4473 108.259 88.0404 108.652 87.832 108.965C87.6302 109.277 87.5293 109.697 87.5293 110.225V110.664H85.6152ZM85.2148 113.779C85.2148 112.796 85.6934 112.305 86.6504 112.305C87.1191 112.305 87.4772 112.435 87.7246 112.695C87.972 112.949 88.0957 113.311 88.0957 113.779C88.0957 114.242 87.9688 114.609 87.7148 114.883C87.4674 115.15 87.1126 115.283 86.6504 115.283C86.1882 115.283 85.8333 115.153 85.5859 114.893C85.3385 114.626 85.2148 114.255 85.2148 113.779Z" fill="white"/>
<defs>
<filter id="filter0_d" x="24" y="131" width="199" height="105" filterUnits="userSpaceOnUse" color-interpolation-filters="sRGB">
<feFlood flood-opacity="0" result="BackgroundImageFix"/>
<feColorMatrix in="SourceAlpha" type="matrix" values="0 0 0 0 0 0 0 0 0 0 0 0 0 0 0 0 0 0 127 0"/>
<feOffset dy="3"/>
<feGaussianBlur stdDeviation="3.5"/>
<feColorMatrix type="matrix" values="0 0 0 0 0.0410243 0 0 0 0 0.385435 0 0 0 0 0.579167 0 0 0 0.4 0"/>
<feBlend mode="normal" in2="BackgroundImageFix" result="effect1_dropShadow"/>
<feBlend mode="normal" in="SourceGraphic" in2="effect1_dropShadow" result="shape"/>
</filter>
</defs>
</svg>
