<svg xmlns="http://www.w3.org/2000/svg" width="60" height="60" viewBox="0 0 60 60">
  <g id="Results_in_Percentage" data-name="Results in Percentage" transform="translate(-438 -393)">
    <g id="Ellipse_6" data-name="Ellipse 6" transform="translate(438 393)" fill="#fff" stroke="#f3f5f8" stroke-width="1">
      <circle cx="30" cy="30" r="30" stroke="none"/>
      <circle cx="30" cy="30" r="29.5" fill="none"/>
    </g>
    <g id="percentage" transform="translate(452.599 407.599)">
      <path id="Path_42" data-name="Path 42" d="M97.3,89.242c0,1.5-2.411,2.606-2.857,3.965-.453,1.408.836,3.714-.014,4.885s-3.463.662-4.648,1.526c-1.164.85-1.477,3.484-2.878,3.944-1.359.439-3.15-1.5-4.655-1.5s-3.3,1.937-4.655,1.5c-1.4-.46-1.714-3.094-2.885-3.944s-3.777-.348-4.641-1.526.439-3.477-.014-4.885c-.446-1.359-2.857-2.46-2.857-3.965s2.411-2.606,2.857-3.965c.453-1.408-.836-3.714.014-4.885s3.463-.662,4.648-1.526c1.164-.85,1.477-3.484,2.878-3.944,1.359-.439,3.15,1.5,4.655,1.5s3.3-1.937,4.655-1.5c1.4.46,1.714,3.094,2.885,3.944s3.777.348,4.641,1.526-.439,3.477.014,4.885C94.891,86.636,97.3,87.737,97.3,89.242Zm0,0" transform="translate(-66.502 -74.158)" fill="#c9f3ff"/>
      <path id="Path_43" data-name="Path 43" d="M188.181,154.09a2.09,2.09,0,1,1-2.09-2.09,2.09,2.09,0,0,1,2.09,2.09Zm0,0" transform="translate(-173.13 -144.581)" fill="#c9f3ff"/>
      <path id="Path_44" data-name="Path 44" d="M252.181,274.09a2.09,2.09,0,1,1-2.09-2.09,2.09,2.09,0,0,1,2.09,2.09Zm0,0" transform="translate(-231.555 -254.128)" fill="#c9f3ff"/>
      <g id="Group_151" data-name="Group 151">
        <path id="Path_46" data-name="Path 46" d="M88.984,79.141a4.486,4.486,0,0,1-1.176-1.417,4.637,4.637,0,0,1,.112-1.92c.2-1.115.412-2.275-.232-3.159s-1.874-1.058-2.955-1.2a4.594,4.594,0,0,1-1.842-.477,4.561,4.561,0,0,1-1-1.585c-.474-.991-1.01-2.113-2.075-2.459-1.023-.332-2.049.218-3.039.752a4.678,4.678,0,0,1-1.826.714,4.679,4.679,0,0,1-1.828-.711c-.991-.534-2.017-1.084-3.039-.752-1.066.348-1.6,1.468-2.075,2.459a4.542,4.542,0,0,1-1,1.582,4.593,4.593,0,0,1-1.84.477c-1.081.145-2.305.31-2.955,1.2s-.434,2.042-.231,3.16a4.645,4.645,0,0,1,.11,1.92,4.5,4.5,0,0,1-1.176,1.415c-.8.763-1.712,1.627-1.712,2.766s.906,2,1.711,2.764a4.486,4.486,0,0,1,1.176,1.417,4.637,4.637,0,0,1-.112,1.92c-.2,1.115-.412,2.275.232,3.159s1.874,1.058,2.955,1.2a4.594,4.594,0,0,1,1.833.48,4.561,4.561,0,0,1,1,1.585c.474.991,1.009,2.113,2.075,2.459,1.021.332,2.048-.219,3.039-.752a4.678,4.678,0,0,1,1.826-.713,4.679,4.679,0,0,1,1.828.711,5.378,5.378,0,0,0,2.393.853,2.064,2.064,0,0,0,.646-.1c1.066-.348,1.6-1.468,2.075-2.459a4.541,4.541,0,0,1,1-1.582,4.593,4.593,0,0,1,1.84-.477c1.081-.145,2.305-.31,2.955-1.2s.434-2.042.231-3.16a4.645,4.645,0,0,1-.11-1.92,4.5,4.5,0,0,1,1.176-1.415c.806-.763,1.712-1.627,1.712-2.766A4.144,4.144,0,0,0,88.984,79.141Zm-.96,4.518a5.286,5.286,0,0,0-1.542,2,5.484,5.484,0,0,0,.069,2.6c.151.83.307,1.689.013,2.09s-1.171.529-2.014.642a5.406,5.406,0,0,0-2.475.731,5.365,5.365,0,0,0-1.441,2.109c-.369.774-.751,1.574-1.247,1.735-.456.15-1.216-.259-1.951-.654a5.523,5.523,0,0,0-2.49-.877,5.522,5.522,0,0,0-2.488.877c-.733.394-1.488.8-1.951.654-.5-.161-.878-.961-1.247-1.735a5.366,5.366,0,0,0-1.442-2.111,5.412,5.412,0,0,0-2.474-.731c-.842-.113-1.714-.23-2.014-.642s-.139-1.261.013-2.09a5.487,5.487,0,0,0,.065-2.6,5.277,5.277,0,0,0-1.542-1.994c-.627-.6-1.277-1.213-1.277-1.754s.65-1.158,1.278-1.754a5.289,5.289,0,0,0,1.542-2,5.48,5.48,0,0,0-.066-2.6c-.151-.83-.307-1.689-.013-2.09s1.171-.529,2.014-.642a5.405,5.405,0,0,0,2.474-.731,5.366,5.366,0,0,0,1.441-2.109c.369-.774.751-1.574,1.247-1.735a.712.712,0,0,1,.215-.031,4.589,4.589,0,0,1,1.735.685,5.524,5.524,0,0,0,2.489.877,5.522,5.522,0,0,0,2.488-.877c.733-.394,1.489-.8,1.951-.654.5.161.878.961,1.247,1.735a5.366,5.366,0,0,0,1.442,2.111,5.412,5.412,0,0,0,2.474.731c.842.113,1.714.23,2.014.642s.14,1.261-.013,2.09a5.487,5.487,0,0,0-.065,2.6,5.278,5.278,0,0,0,1.542,1.994c.627.6,1.277,1.213,1.277,1.754s-.652,1.158-1.279,1.754Zm0,0" transform="translate(-59.199 -66.821)"/>
        <path id="Path_47" data-name="Path 47" d="M160.8,173.616,173.612,160.8l.985.985L161.787,174.6Zm0,0" transform="translate(-151.951 -152.619)"/>
        <path id="Path_48" data-name="Path 48" d="M178.787,149.575A2.787,2.787,0,1,0,176,146.788a2.787,2.787,0,0,0,2.787,2.787Zm0-4.181a1.394,1.394,0,1,1-1.394,1.394,1.394,1.394,0,0,1,1.394-1.394Zm0,0" transform="translate(-165.826 -137.278)"/>
        <path id="Path_49" data-name="Path 49" d="M242.787,264a2.787,2.787,0,1,0,2.787,2.787A2.787,2.787,0,0,0,242.787,264Zm0,4.181a1.394,1.394,0,1,1,1.394-1.394A1.394,1.394,0,0,1,242.787,268.181Zm0,0" transform="translate(-224.252 -246.825)"/>
      </g>
    </g>
  </g>
</svg>
