<svg width="255" height="258" viewBox="0 0 255 258" fill="none" xmlns="http://www.w3.org/2000/svg">
<path opacity="0.5" d="M183.216 252.992L23.6514 210.376C9.95837 206.721 2.6373 191.475 8.09759 178.003L71.7795 20.9318C75.6815 11.3085 86.5232 6.83991 95.748 11.0513L228.62 71.7228C236.446 75.2964 240.676 84.0777 238.715 92.6786L205.34 239.21C203.031 249.367 193.013 255.605 183.216 252.992Z" fill="#E1F6FF"/>
<rect x="35" y="67.0001" width="148" height="67" rx="11" fill="#2EA08C"/>
<g filter="url(#filter0_d)">
<rect x="63" y="118" width="185" height="91" rx="11" fill="white"/>
</g>
<rect x="81.5" y="156.5" width="137" height="33" rx="4.5" fill="white" stroke="#329488"/>
<path d="M83.9531 138.654H85.0879C85.849 138.654 86.4004 138.513 86.7422 138.231C87.084 137.948 87.2549 137.529 87.2549 136.973C87.2549 136.408 87.0703 136.002 86.7012 135.756C86.332 135.51 85.776 135.387 85.0332 135.387H83.9531V138.654ZM83.9531 140.008V144H82.3193V134.006H85.1426C86.4323 134.006 87.387 134.247 88.0068 134.731C88.6266 135.214 88.9365 135.943 88.9365 136.918C88.9365 138.162 88.2894 139.049 86.9951 139.577L89.8184 144H87.959L85.5664 140.008H83.9531ZM94.4053 144.137C93.2295 144.137 92.3089 143.795 91.6436 143.111C90.9827 142.423 90.6523 141.478 90.6523 140.274C90.6523 139.039 90.96 138.069 91.5752 137.362C92.1904 136.656 93.0358 136.303 94.1113 136.303C95.1094 136.303 95.8978 136.606 96.4766 137.212C97.0553 137.818 97.3447 138.652 97.3447 139.714V140.582H92.3066C92.3294 141.316 92.5277 141.881 92.9014 142.277C93.2751 142.669 93.8014 142.865 94.4805 142.865C94.9271 142.865 95.3418 142.824 95.7246 142.742C96.112 142.656 96.5267 142.514 96.9688 142.318V143.624C96.5768 143.811 96.1803 143.943 95.7793 144.021C95.3783 144.098 94.9202 144.137 94.4053 144.137ZM94.1113 137.52C93.6009 137.52 93.1908 137.681 92.8809 138.005C92.5755 138.329 92.3932 138.8 92.334 139.42H95.7656C95.7565 138.796 95.6061 138.324 95.3145 138.005C95.0228 137.681 94.6217 137.52 94.1113 137.52ZM103.005 144.137C102.048 144.137 101.305 143.793 100.776 143.105H100.681C100.744 143.743 100.776 144.13 100.776 144.267V147.363H99.1699V136.44H100.469C100.505 136.581 100.58 136.918 100.694 137.451H100.776C101.278 136.686 102.03 136.303 103.032 136.303C103.976 136.303 104.709 136.645 105.233 137.328C105.762 138.012 106.026 138.971 106.026 140.206C106.026 141.441 105.757 142.405 105.22 143.098C104.687 143.79 103.948 144.137 103.005 144.137ZM102.615 137.615C101.977 137.615 101.51 137.802 101.214 138.176C100.922 138.55 100.776 139.147 100.776 139.967V140.206C100.776 141.127 100.922 141.794 101.214 142.209C101.506 142.619 101.982 142.824 102.643 142.824C103.199 142.824 103.627 142.596 103.928 142.141C104.229 141.685 104.379 141.036 104.379 140.192C104.379 139.345 104.229 138.704 103.928 138.272C103.632 137.834 103.194 137.615 102.615 137.615ZM109.499 144H107.893V133.363H109.499V144ZM116.533 144L116.212 142.947H116.157C115.793 143.408 115.426 143.722 115.057 143.891C114.688 144.055 114.214 144.137 113.635 144.137C112.892 144.137 112.311 143.936 111.892 143.535C111.477 143.134 111.27 142.567 111.27 141.833C111.27 141.054 111.559 140.466 112.138 140.069C112.716 139.673 113.598 139.456 114.783 139.42L116.089 139.379V138.976C116.089 138.493 115.975 138.133 115.747 137.896C115.524 137.654 115.175 137.533 114.701 137.533C114.314 137.533 113.942 137.59 113.587 137.704C113.231 137.818 112.89 137.953 112.562 138.107L112.042 136.959C112.452 136.745 112.901 136.583 113.389 136.474C113.876 136.36 114.337 136.303 114.77 136.303C115.731 136.303 116.456 136.512 116.943 136.932C117.436 137.351 117.682 138.01 117.682 138.907V144H116.533ZM114.141 142.906C114.724 142.906 115.191 142.745 115.542 142.421C115.897 142.093 116.075 141.635 116.075 141.047V140.391L115.104 140.432C114.348 140.459 113.797 140.587 113.45 140.815C113.108 141.038 112.938 141.382 112.938 141.847C112.938 142.184 113.038 142.446 113.238 142.633C113.439 142.815 113.74 142.906 114.141 142.906ZM122.973 144.137C121.829 144.137 120.958 143.804 120.361 143.139C119.769 142.469 119.473 141.51 119.473 140.261C119.473 138.989 119.783 138.012 120.402 137.328C121.027 136.645 121.927 136.303 123.103 136.303C123.9 136.303 124.618 136.451 125.256 136.747L124.771 138.039C124.091 137.775 123.531 137.643 123.089 137.643C121.781 137.643 121.127 138.511 121.127 140.247C121.127 141.095 121.289 141.733 121.612 142.161C121.94 142.585 122.419 142.797 123.048 142.797C123.763 142.797 124.44 142.619 125.078 142.264V143.665C124.791 143.834 124.483 143.954 124.155 144.027C123.832 144.1 123.438 144.137 122.973 144.137ZM130.157 144.137C128.981 144.137 128.061 143.795 127.396 143.111C126.735 142.423 126.404 141.478 126.404 140.274C126.404 139.039 126.712 138.069 127.327 137.362C127.942 136.656 128.788 136.303 129.863 136.303C130.861 136.303 131.65 136.606 132.229 137.212C132.807 137.818 133.097 138.652 133.097 139.714V140.582H128.059C128.081 141.316 128.28 141.881 128.653 142.277C129.027 142.669 129.553 142.865 130.232 142.865C130.679 142.865 131.094 142.824 131.477 142.742C131.864 142.656 132.279 142.514 132.721 142.318V143.624C132.329 143.811 131.932 143.943 131.531 144.021C131.13 144.098 130.672 144.137 130.157 144.137ZM129.863 137.52C129.353 137.52 128.943 137.681 128.633 138.005C128.327 138.329 128.145 138.8 128.086 139.42H131.518C131.508 138.796 131.358 138.324 131.066 138.005C130.775 137.681 130.374 137.52 129.863 137.52ZM144.759 144L143.781 140.473C143.663 140.099 143.449 139.231 143.139 137.868H143.077C142.813 139.099 142.603 139.971 142.448 140.486L141.443 144H139.666L137.547 136.44H139.188L140.151 140.165C140.37 141.086 140.525 141.874 140.616 142.53H140.657C140.703 142.198 140.771 141.817 140.862 141.389C140.958 140.956 141.04 140.632 141.108 140.418L142.257 136.44H144.021L145.135 140.418C145.203 140.641 145.287 140.983 145.388 141.443C145.493 141.904 145.554 142.261 145.572 142.517H145.627C145.695 141.956 145.855 141.172 146.105 140.165L147.083 136.44H148.696L146.563 144H144.759ZM151.608 144H150.002V136.44H151.608V144ZM149.906 134.437C149.906 134.149 149.984 133.928 150.139 133.773C150.298 133.619 150.524 133.541 150.815 133.541C151.098 133.541 151.317 133.619 151.472 133.773C151.631 133.928 151.711 134.149 151.711 134.437C151.711 134.71 151.631 134.926 151.472 135.086C151.317 135.241 151.098 135.318 150.815 135.318C150.524 135.318 150.298 135.241 150.139 135.086C149.984 134.926 149.906 134.71 149.906 134.437ZM156.729 142.838C157.12 142.838 157.512 142.776 157.904 142.653V143.863C157.727 143.941 157.496 144.005 157.214 144.055C156.936 144.109 156.646 144.137 156.346 144.137C154.824 144.137 154.062 143.335 154.062 141.731V137.656H153.03V136.945L154.138 136.357L154.685 134.758H155.676V136.44H157.829V137.656H155.676V141.703C155.676 142.091 155.771 142.378 155.963 142.565C156.159 142.747 156.414 142.838 156.729 142.838ZM166.073 144H164.46V139.352C164.46 138.768 164.341 138.333 164.104 138.046C163.872 137.759 163.501 137.615 162.99 137.615C162.316 137.615 161.819 137.818 161.5 138.224C161.186 138.625 161.028 139.299 161.028 140.247V144H159.422V133.363H161.028V136.064C161.028 136.496 161.001 136.959 160.946 137.451H161.049C161.268 137.087 161.571 136.804 161.958 136.604C162.35 136.403 162.806 136.303 163.325 136.303C165.157 136.303 166.073 137.226 166.073 139.071V144Z" fill="#999999"/>
<path d="M106.816 180L106.357 178.496H106.279C105.758 179.154 105.234 179.603 104.707 179.844C104.18 180.078 103.503 180.195 102.676 180.195C101.615 180.195 100.785 179.909 100.186 179.336C99.5931 178.763 99.2969 177.953 99.2969 176.904C99.2969 175.791 99.7103 174.951 100.537 174.385C101.364 173.818 102.624 173.509 104.316 173.457L106.182 173.398V172.822C106.182 172.132 106.019 171.618 105.693 171.279C105.374 170.934 104.876 170.762 104.199 170.762C103.646 170.762 103.115 170.843 102.607 171.006C102.1 171.169 101.611 171.361 101.143 171.582L100.4 169.941C100.986 169.635 101.628 169.404 102.324 169.248C103.021 169.085 103.678 169.004 104.297 169.004C105.671 169.004 106.706 169.303 107.402 169.902C108.105 170.501 108.457 171.442 108.457 172.725V180H106.816ZM103.398 178.438C104.232 178.438 104.899 178.206 105.4 177.744C105.908 177.275 106.162 176.621 106.162 175.781V174.844L104.775 174.902C103.695 174.941 102.907 175.124 102.412 175.449C101.924 175.768 101.68 176.26 101.68 176.924C101.68 177.406 101.823 177.78 102.109 178.047C102.396 178.307 102.826 178.438 103.398 178.438ZM117.139 180.195C115.771 180.195 114.71 179.704 113.955 178.721H113.818C113.91 179.632 113.955 180.186 113.955 180.381V184.805H111.66V169.199H113.516C113.568 169.401 113.675 169.883 113.838 170.645H113.955C114.671 169.551 115.745 169.004 117.178 169.004C118.525 169.004 119.574 169.492 120.322 170.469C121.077 171.445 121.455 172.816 121.455 174.58C121.455 176.344 121.071 177.721 120.303 178.711C119.541 179.701 118.486 180.195 117.139 180.195ZM116.582 170.879C115.671 170.879 115.003 171.146 114.58 171.68C114.163 172.214 113.955 173.066 113.955 174.238V174.58C113.955 175.895 114.163 176.849 114.58 177.441C114.997 178.027 115.677 178.32 116.621 178.32C117.415 178.32 118.027 177.995 118.457 177.344C118.887 176.693 119.102 175.765 119.102 174.561C119.102 173.35 118.887 172.435 118.457 171.816C118.034 171.191 117.409 170.879 116.582 170.879ZM129.6 180.195C128.232 180.195 127.171 179.704 126.416 178.721H126.279C126.37 179.632 126.416 180.186 126.416 180.381V184.805H124.121V169.199H125.977C126.029 169.401 126.136 169.883 126.299 170.645H126.416C127.132 169.551 128.206 169.004 129.639 169.004C130.986 169.004 132.035 169.492 132.783 170.469C133.538 171.445 133.916 172.816 133.916 174.58C133.916 176.344 133.532 177.721 132.764 178.711C132.002 179.701 130.947 180.195 129.6 180.195ZM129.043 170.879C128.132 170.879 127.464 171.146 127.041 171.68C126.624 172.214 126.416 173.066 126.416 174.238V174.58C126.416 175.895 126.624 176.849 127.041 177.441C127.458 178.027 128.138 178.32 129.082 178.32C129.876 178.32 130.488 177.995 130.918 177.344C131.348 176.693 131.562 175.765 131.562 174.561C131.562 173.35 131.348 172.435 130.918 171.816C130.495 171.191 129.87 170.879 129.043 170.879ZM142.061 169.004C142.523 169.004 142.904 169.037 143.203 169.102L142.979 171.24C142.653 171.162 142.314 171.123 141.963 171.123C141.045 171.123 140.299 171.423 139.727 172.022C139.16 172.621 138.877 173.398 138.877 174.356V180H136.582V169.199H138.379L138.682 171.104H138.799C139.157 170.459 139.622 169.948 140.195 169.57C140.775 169.193 141.396 169.004 142.061 169.004ZM149.932 180.195C148.252 180.195 146.937 179.707 145.986 178.731C145.042 177.747 144.57 176.397 144.57 174.678C144.57 172.913 145.01 171.527 145.889 170.518C146.768 169.509 147.975 169.004 149.512 169.004C150.938 169.004 152.064 169.437 152.891 170.303C153.717 171.169 154.131 172.36 154.131 173.877V175.117H146.934C146.966 176.165 147.249 176.973 147.783 177.539C148.317 178.099 149.069 178.379 150.039 178.379C150.677 178.379 151.27 178.32 151.816 178.203C152.37 178.079 152.962 177.878 153.594 177.598V179.463C153.034 179.73 152.467 179.919 151.895 180.029C151.322 180.14 150.667 180.195 149.932 180.195ZM149.512 170.742C148.783 170.742 148.197 170.973 147.754 171.436C147.318 171.898 147.057 172.572 146.973 173.457H151.875C151.862 172.565 151.647 171.891 151.23 171.436C150.814 170.973 150.241 170.742 149.512 170.742ZM161.094 180.195C159.46 180.195 158.216 179.72 157.363 178.77C156.517 177.813 156.094 176.442 156.094 174.658C156.094 172.842 156.536 171.445 157.422 170.469C158.314 169.492 159.6 169.004 161.279 169.004C162.419 169.004 163.444 169.216 164.355 169.639L163.662 171.484C162.692 171.107 161.891 170.918 161.26 170.918C159.391 170.918 158.457 172.158 158.457 174.639C158.457 175.85 158.688 176.761 159.15 177.373C159.619 177.979 160.303 178.281 161.201 178.281C162.223 178.281 163.19 178.027 164.102 177.52V179.522C163.691 179.762 163.252 179.935 162.783 180.039C162.321 180.143 161.758 180.195 161.094 180.195ZM168.936 180H166.641V169.199H168.936V180ZM166.504 166.338C166.504 165.928 166.615 165.612 166.836 165.391C167.064 165.169 167.386 165.059 167.803 165.059C168.206 165.059 168.519 165.169 168.74 165.391C168.968 165.612 169.082 165.928 169.082 166.338C169.082 166.729 168.968 167.038 168.74 167.266C168.519 167.487 168.206 167.598 167.803 167.598C167.386 167.598 167.064 167.487 166.836 167.266C166.615 167.038 166.504 166.729 166.504 166.338ZM178.984 180L178.525 178.496H178.447C177.926 179.154 177.402 179.603 176.875 179.844C176.348 180.078 175.671 180.195 174.844 180.195C173.783 180.195 172.952 179.909 172.354 179.336C171.761 178.763 171.465 177.953 171.465 176.904C171.465 175.791 171.878 174.951 172.705 174.385C173.532 173.818 174.792 173.509 176.484 173.457L178.35 173.398V172.822C178.35 172.132 178.187 171.618 177.861 171.279C177.542 170.934 177.044 170.762 176.367 170.762C175.814 170.762 175.283 170.843 174.775 171.006C174.268 171.169 173.779 171.361 173.311 171.582L172.568 169.941C173.154 169.635 173.796 169.404 174.492 169.248C175.189 169.085 175.846 169.004 176.465 169.004C177.839 169.004 178.874 169.303 179.57 169.902C180.273 170.501 180.625 171.442 180.625 172.725V180H178.984ZM175.566 178.438C176.4 178.438 177.067 178.206 177.568 177.744C178.076 177.275 178.33 176.621 178.33 175.781V174.844L176.943 174.902C175.863 174.941 175.075 175.124 174.58 175.449C174.092 175.768 173.848 176.26 173.848 176.924C173.848 177.406 173.991 177.78 174.277 178.047C174.564 178.307 174.993 178.438 175.566 178.438ZM187.852 178.34C188.411 178.34 188.971 178.252 189.531 178.076V179.805C189.277 179.915 188.949 180.007 188.545 180.078C188.148 180.156 187.734 180.195 187.305 180.195C185.13 180.195 184.043 179.05 184.043 176.758V170.938H182.568V169.922L184.15 169.082L184.932 166.797H186.348V169.199H189.424V170.938H186.348V176.719C186.348 177.272 186.484 177.682 186.758 177.949C187.038 178.21 187.402 178.34 187.852 178.34ZM196.416 180.195C194.736 180.195 193.421 179.707 192.471 178.731C191.527 177.747 191.055 176.397 191.055 174.678C191.055 172.913 191.494 171.527 192.373 170.518C193.252 169.509 194.46 169.004 195.996 169.004C197.422 169.004 198.548 169.437 199.375 170.303C200.202 171.169 200.615 172.36 200.615 173.877V175.117H193.418C193.451 176.165 193.734 176.973 194.268 177.539C194.801 178.099 195.553 178.379 196.523 178.379C197.161 178.379 197.754 178.32 198.301 178.203C198.854 178.079 199.447 177.878 200.078 177.598V179.463C199.518 179.73 198.952 179.919 198.379 180.029C197.806 180.14 197.152 180.195 196.416 180.195ZM195.996 170.742C195.267 170.742 194.681 170.973 194.238 171.436C193.802 171.898 193.542 172.572 193.457 173.457H198.359C198.346 172.565 198.132 171.891 197.715 171.436C197.298 170.973 196.725 170.742 195.996 170.742Z" fill="#329488"/>
<line x1="55" y1="102" x2="167" y2="102" stroke="#48DEFF" stroke-width="2"/>
<path d="M62.8809 97.0001L62.4219 95.4962H62.3438C61.8229 96.1537 61.2988 96.6029 60.7715 96.8438C60.2441 97.0782 59.5671 97.1954 58.7402 97.1954C57.679 97.1954 56.849 96.9089 56.25 96.336C55.6576 95.7631 55.3613 94.9525 55.3613 93.9044C55.3613 92.7911 55.7747 91.9512 56.6016 91.3848C57.4284 90.8184 58.6882 90.5092 60.3809 90.4571L62.2461 90.3985V89.8223C62.2461 89.1322 62.0833 88.6179 61.7578 88.2794C61.4388 87.9343 60.9408 87.7618 60.2637 87.7618C59.7103 87.7618 59.1797 87.8432 58.6719 88.0059C58.1641 88.1687 57.6758 88.3607 57.207 88.5821L56.4648 86.9415C57.0508 86.6355 57.6921 86.4044 58.3887 86.2481C59.0853 86.0853 59.7428 86.004 60.3613 86.004C61.735 86.004 62.7702 86.3034 63.4668 86.9024C64.1699 87.5014 64.5215 88.4421 64.5215 89.7247V97.0001H62.8809ZM59.4629 95.4376C60.2962 95.4376 60.9635 95.2064 61.4648 94.7442C61.9727 94.2755 62.2266 93.6212 62.2266 92.7813V91.8438L60.8398 91.9024C59.7591 91.9415 58.9714 92.1238 58.4766 92.4493C57.9883 92.7683 57.7441 93.2598 57.7441 93.9239C57.7441 94.4057 57.8874 94.78 58.1738 95.0469C58.4603 95.3074 58.89 95.4376 59.4629 95.4376ZM73.2031 97.1954C71.8359 97.1954 70.7747 96.7038 70.0195 95.7208H69.8828C69.974 96.6322 70.0195 97.1856 70.0195 97.3809V101.805H67.7246V86.1993H69.5801C69.6322 86.4011 69.7396 86.8829 69.9023 87.6446H70.0195C70.7357 86.5508 71.8099 86.004 73.2422 86.004C74.5898 86.004 75.638 86.4922 76.3867 87.4688C77.1419 88.4454 77.5195 89.8158 77.5195 91.5801C77.5195 93.3445 77.1354 94.7214 76.3672 95.711C75.6055 96.7006 74.5508 97.1954 73.2031 97.1954ZM72.6465 87.879C71.735 87.879 71.0677 88.1459 70.6445 88.6797C70.2279 89.2136 70.0195 90.0665 70.0195 91.2383V91.5801C70.0195 92.8952 70.2279 93.849 70.6445 94.4415C71.0612 95.0274 71.7415 95.3204 72.6855 95.3204C73.4798 95.3204 74.0918 94.9949 74.5215 94.3438C74.9512 93.6928 75.166 92.765 75.166 91.5606C75.166 90.3497 74.9512 89.435 74.5215 88.8165C74.0983 88.1915 73.4733 87.879 72.6465 87.879ZM85.6641 97.1954C84.2969 97.1954 83.2357 96.7038 82.4805 95.7208H82.3438C82.4349 96.6322 82.4805 97.1856 82.4805 97.3809V101.805H80.1855V86.1993H82.041C82.0931 86.4011 82.2005 86.8829 82.3633 87.6446H82.4805C83.1966 86.5508 84.2708 86.004 85.7031 86.004C87.0508 86.004 88.099 86.4922 88.8477 87.4688C89.6029 88.4454 89.9805 89.8158 89.9805 91.5801C89.9805 93.3445 89.5964 94.7214 88.8281 95.711C88.0664 96.7006 87.0117 97.1954 85.6641 97.1954ZM85.1074 87.879C84.196 87.879 83.5286 88.1459 83.1055 88.6797C82.6888 89.2136 82.4805 90.0665 82.4805 91.2383V91.5801C82.4805 92.8952 82.6888 93.849 83.1055 94.4415C83.5221 95.0274 84.2025 95.3204 85.1465 95.3204C85.9408 95.3204 86.5527 94.9949 86.9824 94.3438C87.4121 93.6928 87.627 92.765 87.627 91.5606C87.627 90.3497 87.4121 89.435 86.9824 88.8165C86.5592 88.1915 85.9342 87.879 85.1074 87.879ZM98.125 86.004C98.5872 86.004 98.9681 86.0365 99.2676 86.1016L99.043 88.2403C98.7174 88.1622 98.3789 88.1231 98.0273 88.1231C97.1094 88.1231 96.3639 88.4226 95.791 89.0215C95.2246 89.6205 94.9414 90.3985 94.9414 91.3555V97.0001H92.6465V86.1993H94.4434L94.7461 88.1036H94.8633C95.2214 87.459 95.6868 86.948 96.2598 86.5704C96.8392 86.1928 97.4609 86.004 98.125 86.004ZM105.996 97.1954C104.316 97.1954 103.001 96.7071 102.051 95.7305C101.107 94.7475 100.635 93.3965 100.635 91.6778C100.635 89.9135 101.074 88.5268 101.953 87.5176C102.832 86.5085 104.04 86.004 105.576 86.004C107.002 86.004 108.128 86.4369 108.955 87.3028C109.782 88.1687 110.195 89.3601 110.195 90.877V92.1172H102.998C103.031 93.1654 103.314 93.9727 103.848 94.5391C104.382 95.099 105.133 95.379 106.104 95.379C106.742 95.379 107.334 95.3204 107.881 95.2032C108.434 95.0795 109.027 94.8777 109.658 94.5977V96.463C109.098 96.7299 108.532 96.9187 107.959 97.0294C107.386 97.14 106.732 97.1954 105.996 97.1954ZM105.576 87.7422C104.847 87.7422 104.261 87.9734 103.818 88.4356C103.382 88.8978 103.122 89.5717 103.037 90.4571H107.939C107.926 89.5652 107.712 88.8913 107.295 88.4356C106.878 87.9734 106.305 87.7422 105.576 87.7422ZM117.158 97.1954C115.524 97.1954 114.281 96.7201 113.428 95.7696C112.581 94.8126 112.158 93.4421 112.158 91.6583C112.158 89.8419 112.601 88.4454 113.486 87.4688C114.378 86.4922 115.664 86.004 117.344 86.004C118.483 86.004 119.508 86.2156 120.42 86.6387L119.727 88.4844C118.757 88.1068 117.956 87.918 117.324 87.918C115.456 87.918 114.521 89.1583 114.521 91.6387C114.521 92.8497 114.753 93.7611 115.215 94.3731C115.684 94.9786 116.367 95.2813 117.266 95.2813C118.288 95.2813 119.255 95.0274 120.166 94.5196V96.5215C119.756 96.7624 119.316 96.935 118.848 97.0391C118.385 97.1433 117.822 97.1954 117.158 97.1954ZM125 97.0001H122.705V86.1993H125V97.0001ZM122.568 83.338C122.568 82.9278 122.679 82.612 122.9 82.3907C123.128 82.1693 123.451 82.0587 123.867 82.0587C124.271 82.0587 124.583 82.1693 124.805 82.3907C125.033 82.612 125.146 82.9278 125.146 83.338C125.146 83.7286 125.033 84.0378 124.805 84.2657C124.583 84.487 124.271 84.5977 123.867 84.5977C123.451 84.5977 123.128 84.487 122.9 84.2657C122.679 84.0378 122.568 83.7286 122.568 83.338ZM135.049 97.0001L134.59 95.4962H134.512C133.991 96.1537 133.467 96.6029 132.939 96.8438C132.412 97.0782 131.735 97.1954 130.908 97.1954C129.847 97.1954 129.017 96.9089 128.418 96.336C127.826 95.7631 127.529 94.9525 127.529 93.9044C127.529 92.7911 127.943 91.9512 128.77 91.3848C129.596 90.8184 130.856 90.5092 132.549 90.4571L134.414 90.3985V89.8223C134.414 89.1322 134.251 88.6179 133.926 88.2794C133.607 87.9343 133.109 87.7618 132.432 87.7618C131.878 87.7618 131.348 87.8432 130.84 88.0059C130.332 88.1687 129.844 88.3607 129.375 88.5821L128.633 86.9415C129.219 86.6355 129.86 86.4044 130.557 86.2481C131.253 86.0853 131.911 86.004 132.529 86.004C133.903 86.004 134.938 86.3034 135.635 86.9024C136.338 87.5014 136.689 88.4421 136.689 89.7247V97.0001H135.049ZM131.631 95.4376C132.464 95.4376 133.132 95.2064 133.633 94.7442C134.141 94.2755 134.395 93.6212 134.395 92.7813V91.8438L133.008 91.9024C131.927 91.9415 131.139 92.1238 130.645 92.4493C130.156 92.7683 129.912 93.2598 129.912 93.9239C129.912 94.4057 130.055 94.78 130.342 95.0469C130.628 95.3074 131.058 95.4376 131.631 95.4376ZM143.916 95.3399C144.476 95.3399 145.036 95.252 145.596 95.0762V96.8047C145.342 96.9154 145.013 97.0066 144.609 97.0782C144.212 97.1563 143.799 97.1954 143.369 97.1954C141.195 97.1954 140.107 96.0495 140.107 93.7579V87.9376H138.633V86.9219L140.215 86.0821L140.996 83.7969H142.412V86.1993H145.488V87.9376H142.412V93.7188C142.412 94.2722 142.549 94.6824 142.822 94.9493C143.102 95.2097 143.467 95.3399 143.916 95.3399ZM151.787 95.3399C152.347 95.3399 152.907 95.252 153.467 95.0762V96.8047C153.213 96.9154 152.884 97.0066 152.48 97.0782C152.083 97.1563 151.67 97.1954 151.24 97.1954C149.066 97.1954 147.979 96.0495 147.979 93.7579V87.9376H146.504V86.9219L148.086 86.0821L148.867 83.7969H150.283V86.1993H153.359V87.9376H150.283V93.7188C150.283 94.2722 150.42 94.6824 150.693 94.9493C150.973 95.2097 151.338 95.3399 151.787 95.3399ZM160.352 97.1954C158.672 97.1954 157.357 96.7071 156.406 95.7305C155.462 94.7475 154.99 93.3965 154.99 91.6778C154.99 89.9135 155.43 88.5268 156.309 87.5176C157.188 86.5085 158.395 86.004 159.932 86.004C161.357 86.004 162.484 86.4369 163.311 87.3028C164.137 88.1687 164.551 89.3601 164.551 90.877V92.1172H157.354C157.386 93.1654 157.669 93.9727 158.203 94.5391C158.737 95.099 159.489 95.379 160.459 95.379C161.097 95.379 161.689 95.3204 162.236 95.2032C162.79 95.0795 163.382 94.8777 164.014 94.5977V96.463C163.454 96.7299 162.887 96.9187 162.314 97.0294C161.742 97.14 161.087 97.1954 160.352 97.1954ZM159.932 87.7422C159.202 87.7422 158.617 87.9734 158.174 88.4356C157.738 88.8978 157.477 89.5717 157.393 90.4571H162.295C162.282 89.5652 162.067 88.8913 161.65 88.4356C161.234 87.9734 160.661 87.7422 159.932 87.7422Z" fill="white"/>
<defs>
<filter id="filter0_d" x="56" y="114" width="199" height="105" filterUnits="userSpaceOnUse" color-interpolation-filters="sRGB">
<feFlood flood-opacity="0" result="BackgroundImageFix"/>
<feColorMatrix in="SourceAlpha" type="matrix" values="0 0 0 0 0 0 0 0 0 0 0 0 0 0 0 0 0 0 127 0"/>
<feOffset dy="3"/>
<feGaussianBlur stdDeviation="3.5"/>
<feColorMatrix type="matrix" values="0 0 0 0 0.0410243 0 0 0 0 0.385435 0 0 0 0 0.579167 0 0 0 0.4 0"/>
<feBlend mode="normal" in2="BackgroundImageFix" result="effect1_dropShadow"/>
<feBlend mode="normal" in="SourceGraphic" in2="effect1_dropShadow" result="shape"/>
</filter>
</defs>
</svg>
